SplineFontDB: 3.0
FontName: nnieUntitled1
FullName: nnieUntitled1
FamilyName: nnieUntitled1
Weight: Regular
Copyright: Copyright (c) 2019, Jack
UComments: "2019-8-23: Created with FontForge (http://fontforge.org)"
Version: 001.000
ItalicAngle: 0
UnderlinePosition: -200
UnderlineWidth: 25
Ascent: 850
Descent: 150
InvalidEm: 0
LayerCount: 2
Layer: 0 0 "Back" 1
Layer: 1 0 "Fore" 0
XUID: [1021 647 -312734098 29385]
StyleMap: 0x0000
FSType: 0
OS2Version: 0
OS2_WeightWidthSlopeOnly: 0
OS2_UseTypoMetrics: 1
CreationTime: 1566577596
ModificationTime: 1567452885
PfmFamily: 17
TTFWeight: 400
TTFWidth: 5
LineGap: 90
VLineGap: 90
OS2TypoAscent: 0
OS2TypoAOffset: 1
OS2TypoDescent: 0
OS2TypoDOffset: 1
OS2TypoLinegap: 90
OS2WinAscent: 0
OS2WinAOffset: 1
OS2WinDescent: 0
OS2WinDOffset: 1
HheadAscent: 0
HheadAOffset: 1
HheadDescent: 0
HheadDOffset: 1
OS2Vendor: 'PfEd'
Lookup: 6 0 0 "semivowels" { "semivowels contextual 0"  "semivowels contextual 1"  } ['liga' ('latn' <'dflt' > 'DFLT' <'dflt' > ) ]
Lookup: 1 0 0 "Single Substitution lookup 1" { "Single Substitution lookup 1 subtable"  } []
Lookup: 1 0 0 "Single Substitution lookup 2" { "Single Substitution lookup 2 subtable"  } []
Lookup: 4 0 1 "diphthongs" { "diphthongs subtable"  } ['liga' ('latn' <'dflt' > 'DFLT' <'dflt' > ) ]

StartChar: ny
Encoding: 0 60256 0
Width: 750
VWidth: 2427
Flags: W
HStem: 255 60<132 619> 529 60<132 619> 802 60<132 619>
VStem: 72 60<315 529 589 802> 619 60<315 529 589 802>
CounterMasks: 1 e0
AnchorPoint: "Above" 375 230 basechar 0
LayerCount: 2
Back
SplineSet
101.877929688 832.208007812 m 1
 649.130859375 832.208007812 l 1
 649.130859375 284.955078125 l 1
 101.877929688 284.955078125 l 1
 101.877929688 832.208007812 l 1
101.877929688 558.581054688 m 1
 649.130859375 558.581054688 l 1025
EndSplineSet
Fore
SplineSet
619 529 m 1
 132 529 l 1
 132 315 l 1
 619 315 l 1
 619 529 l 1
619 589 m 1
 619 802 l 1
 132 802 l 1
 132 589 l 1
 619 589 l 1
102 862 m 2
 649 862 l 2
 658 862 664 858 670 852 c 0
 676 846 679 839 679 832 c 2
 679 285 l 2
 679 276 676 270 670 264 c 0
 664 258 656 255 649 255 c 2
 102 255 l 2
 93 255 86 258 80 264 c 0
 74 270 72 278 72 285 c 2
 72 832 l 2
 72 841 76 848 82 854 c 0
 88 860 95 862 102 862 c 2
EndSplineSet
Substitution2: "Single Substitution lookup 82 subtable" ny.cvc.3
Substitution2: "Single Substitution lookup 71 subtable" ny.cvc.1
Substitution2: "Single Substitution lookup 64 subtable" ny.ccv.2
Substitution2: "Single Substitution lookup 60 subtable" ny.cvc.3
Substitution2: "Single Substitution lookup 56 subtable" ny.cvc.1
Substitution2: "Single Substitution lookup 54 subtable" ny.ccv.1
Substitution2: "Single Substitution lookup 31 subtable" ny.ccv.2
Substitution2: "Single Substitution lookup 18 subtable" ny.ccv.2
EndChar

StartChar: dy
Encoding: 1 60257 1
Width: 750
VWidth: 2427
Flags: W
HStem: 255 60<132 679> 529 60<132 679> 802 60<132 679>
VStem: 72 60<315 529 589 802>
CounterMasks: 1 e0
AnchorPoint: "Above" 375 230 basechar 0
LayerCount: 2
Back
SplineSet
649.130859375 284.955078125 m 5
 101.877929688 284.955078125 l 5
 101.877929688 832.208007812 l 5
 649.130859375 832.208007812 l 1029
101.877929688 558.581054688 m 5
 649.130859375 558.581054688 l 1029
EndSplineSet
Fore
SplineSet
679 315 m 1
 679 255 l 1
 102 255 l 2
 93 255 86 258 80 264 c 0
 74 270 72 278 72 285 c 2
 72 832 l 2
 72 841 76 848 82 854 c 0
 88 860 95 862 102 862 c 2
 679 862 l 1
 679 802 l 1
 132 802 l 1
 132 589 l 1
 679 589 l 1
 679 529 l 1
 132 529 l 1
 132 315 l 1
 679 315 l 1
EndSplineSet
Substitution2: "Single Substitution lookup 82 subtable" dy.cvc.3
Substitution2: "Single Substitution lookup 71 subtable" dy.cvc.1
Substitution2: "Single Substitution lookup 64 subtable" dy.ccv.2
Substitution2: "Single Substitution lookup 60 subtable" dy.cvc.3
Substitution2: "Single Substitution lookup 56 subtable" dy.cvc.1
Substitution2: "Single Substitution lookup 54 subtable" dy.ccv.1
Substitution2: "Single Substitution lookup 36 subtable" dy.ccv.2
Substitution2: "Single Substitution lookup 23 subtable" dy.ccv.2
EndChar

StartChar: ty
Encoding: 2 60258 2
Width: 750
VWidth: 2427
Flags: W
HStem: 255 60<72 619> 529 60<72 619> 802 60<72 619>
VStem: 619 60<315 529 589 802>
CounterMasks: 1 e0
AnchorPoint: "Above" 375 230 basechar 0
LayerCount: 2
Back
SplineSet
101.877929688 832.208007812 m 5
 649.130859375 832.208007812 l 5
 649.130859375 284.955078125 l 5
 101.877929688 284.955078125 l 1029
101.877929688 558.581054688 m 5
 649.130859375 558.581054688 l 1029
EndSplineSet
Fore
SplineSet
72 529 m 1
 72 589 l 1
 619 589 l 1
 619 802 l 1
 72 802 l 1
 72 862 l 1
 649 862 l 2
 658 862 664 858 670 852 c 0
 676 846 679 839 679 832 c 2
 679 285 l 2
 679 276 676 270 670 264 c 0
 664 258 656 255 649 255 c 2
 72 255 l 1
 72 315 l 1
 619 315 l 1
 619 529 l 1
 72 529 l 1
EndSplineSet
Substitution2: "Single Substitution lookup 82 subtable" ty.cvc.3
Substitution2: "Single Substitution lookup 71 subtable" ty.cvc.1
Substitution2: "Single Substitution lookup 64 subtable" ty.ccv.2
Substitution2: "Single Substitution lookup 60 subtable" ty.cvc.3
Substitution2: "Single Substitution lookup 56 subtable" ty.cvc.1
Substitution2: "Single Substitution lookup 54 subtable" ty.ccv.1
Substitution2: "Single Substitution lookup 28 subtable" ty.ccv.2
Substitution2: "Single Substitution lookup 15 subtable" ty.ccv.2
EndChar

StartChar: zy
Encoding: 3 60259 3
Width: 750
VWidth: 2427
Flags: W
HStem: 255 60<187 483.5> 529 60<187 505> 842 20G<127 187>
VStem: 127 60<315 529 589 862>
DStem2: 482 315 539 283 0.135836 0.990731<0 213.576> 647 851 695 814 0.6 0.8<-187.156 29.205>
AnchorPoint: "Above" 375 230 basechar 0
LayerCount: 2
Back
SplineSet
157.921875 558.581054688 m 5
 515.064453125 558.581054688 l 1029
156.823242188 832.208007812 m 5
 156.823242188 285.50390625 l 5
 509.5703125 285.50390625 l 5
 526.559570312 520.946289062 539.822265625 662.15625 671.108398438 832.208007812 c 1029
EndSplineSet
Fore
SplineSet
127 862 m 1
 187 862 l 1
 187 589 l 1
 515 589 l 1
 538 680 582 768 647 851 c 1
 666 874 l 1
 681 862 697 850 713 838 c 1
 695 814 l 2
 664 774 639 735 620 698 c 0
 601 661 587 619 576 572 c 0
 565 525 558 483 554 446 c 0
 550 409 544 354 539 283 c 0
 538 276 535 270 530 264 c 0
 525 258 518 255 510 255 c 2
 157 255 l 2
 150 255 142 258 136 264 c 0
 130 270 127 276 127 285 c 2
 127 862 l 1
187 529 m 1
 187 315 l 1
 482 315 l 1
 490 416 498 488 505 529 c 1
 187 529 l 1
EndSplineSet
Substitution2: "Single Substitution lookup 82 subtable" zy.cvc.3
Substitution2: "Single Substitution lookup 71 subtable" zy.cvc.1
Substitution2: "Single Substitution lookup 64 subtable" zy.ccv.2
Substitution2: "Single Substitution lookup 60 subtable" zy.cvc.3
Substitution2: "Single Substitution lookup 56 subtable" zy.cvc.1
Substitution2: "Single Substitution lookup 54 subtable" zy.ccv.1
Substitution2: "Single Substitution lookup 46 subtable" zy.ccv.2
EndChar

StartChar: sy
Encoding: 4 60260 4
Width: 750
VWidth: 2427
Flags: W
HStem: 255 21G<619 679> 529 60<291 619> 802 60<326.602 619>
VStem: 619 60<255 529 589 802>
DStem2: 60 280 107 243 0.616098 0.78767<-0.422526 258.745>
AnchorPoint: "Above" 375 230 basechar 0
LayerCount: 2
Back
SplineSet
101.877929688 284.955078125 m 5
 199.822265625 408.008789062 261.1953125 483.163085938 302.9765625 832.208007812 c 5
 649.130859375 832.208007812 l 5
 649.130859375 284.955078125 l 1029
278.80078125 558.581054688 m 5
 649.130859375 558.581054688 l 1029
EndSplineSet
Fore
SplineSet
107 243 m 1
 91 255 75 267 60 280 c 1
 78 304 l 2
 105 338 123 361 133 374 c 0
 143 387 158 410 176 442 c 0
 194 474 207 506 216 536 c 0
 225 566 234 607 245 658 c 0
 256 709 265 768 273 836 c 0
 274 843 278 849 284 854 c 0
 290 859 296 862 303 862 c 2
 649 862 l 2
 658 862 664 858 670 852 c 0
 676 846 679 839 679 832 c 2
 679 255 l 1
 619 255 l 1
 619 529 l 1
 279 529 l 1
 267 491 252 454 233 420 c 0
 214 386 198 360 186 344 c 0
 174 328 154 302 125 266 c 2
 107 243 l 1
291 589 m 1
 619 589 l 1
 619 802 l 1
 329 802 l 1
 319 723 306 652 291 589 c 1
EndSplineSet
Substitution2: "Single Substitution lookup 82 subtable" sy.cvc.3
Substitution2: "Single Substitution lookup 71 subtable" sy.cvc.1
Substitution2: "Single Substitution lookup 64 subtable" sy.ccv.2
Substitution2: "Single Substitution lookup 60 subtable" sy.cvc.3
Substitution2: "Single Substitution lookup 56 subtable" sy.cvc.1
Substitution2: "Single Substitution lookup 54 subtable" sy.ccv.1
Substitution2: "Single Substitution lookup 41 subtable" sy.ccv.2
EndChar

StartChar: gy
Encoding: 5 60261 5
Width: 750
VWidth: 2427
Flags: W
HStem: 244 21G<623.634 666.5> 852 20G<621.327 667.5>
DStem2: 170 568 75 550 0.886746 -0.462256<0 586.03> 90 597 170 568 0.901548 0.43268<59.5761 635.649>
AnchorPoint: "Above" 375 230 basechar 0
LayerCount: 2
Back
SplineSet
649.130859375 832.208007812 m 5
 102.9765625 569.5703125 l 5
 649.130859375 284.955078125 l 1029
EndSplineSet
Fore
SplineSet
663 872 m 1
 672 854 680 836 689 818 c 1
 170 568 l 1
 690 298 l 1
 681 280 671 262 662 244 c 1
 75 550 l 1
 71 558 70 567 73 577 c 0
 76 587 82 593 90 597 c 2
 663 872 l 1
EndSplineSet
Substitution2: "Single Substitution lookup 82 subtable" gy.cvc.3
Substitution2: "Single Substitution lookup 71 subtable" gy.cvc.1
Substitution2: "Single Substitution lookup 64 subtable" gy.ccv.2
Substitution2: "Single Substitution lookup 60 subtable" gy.cvc.3
Substitution2: "Single Substitution lookup 56 subtable" gy.cvc.1
Substitution2: "Single Substitution lookup 54 subtable" gy.ccv.1
Substitution2: "Single Substitution lookup 37 subtable" gy.ccv.2
Substitution2: "Single Substitution lookup 24 subtable" gy.ccv.2
EndChar

StartChar: jy
Encoding: 6 60262 6
Width: 750
VWidth: 2427
Flags: W
HStem: 256 21G<345 405> 529 60<72 309 438 679> 810 49<619.614 669> 851 20G<77.1111 114>
VStem: 345 60<256 529>
DStem2: 86 871 63 816 0.930751 -0.365652<0 113.816>
AnchorPoint: "Above" 375 230 basechar 0
LayerCount: 2
Back
SplineSet
102.009765625 559.009765625 m 1
 649.009765625 559.009765625 l 1025
375.009765625 482.009765625 m 1
 375.009765625 286.009765625 l 1025
102.009765625 832.009765625 m 1
 159.009765625 808.009765625 372.009765625 635.009765625 375.009765625 482.009765625 c 1
 372.009765625 629.009765625 578.009765625 809.009765625 649.009765625 830.009765625 c 1025
EndSplineSet
Fore
SplineSet
374 597 m 1xd8
 403 657 445 713 500 765 c 0
 555 817 602 848 640 859 c 1
 669 859 l 1
 669 839 l 1
 686 810 l 1
 658 810 l 1xe8
 635 803 600 777 552 730 c 0
 504 683 465 636 438 589 c 1
 679 589 l 1
 679 529 l 1
 405 529 l 1
 405 256 l 1
 345 256 l 1
 345 529 l 1
 72 529 l 1
 72 589 l 1
 309 589 l 1
 282 636 244 680 196 724 c 0
 148 768 112 795 90 804 c 2
 63 816 l 1
 74 844 l 1
 86 871 l 1
 114 860 l 2
 148 845 193 812 248 761 c 0
 303 710 345 655 374 597 c 1xd8
EndSplineSet
Substitution2: "Single Substitution lookup 82 subtable" jy.cvc.3
Substitution2: "Single Substitution lookup 71 subtable" jy.cvc.1
Substitution2: "Single Substitution lookup 64 subtable" jy.ccv.2
Substitution2: "Single Substitution lookup 60 subtable" jy.cvc.3
Substitution2: "Single Substitution lookup 56 subtable" jy.cvc.1
Substitution2: "Single Substitution lookup 54 subtable" jy.ccv.1
Substitution2: "Single Substitution lookup 44 subtable" jy.ccv.2
EndChar

StartChar: xy
Encoding: 7 60263 7
Width: 750
VWidth: 2427
Flags: W
HStem: 249 21G<639 670.5> 261 50<83 148.336> 842 20G<345 405>
VStem: 345 60<526.15 862>
DStem2: 659 316 639 260 0.930751 -0.365652<-136.082 30.0805>
AnchorPoint: "Above" 375 230 basechar 0
LayerCount: 2
Back
SplineSet
375.306640625 629.713867188 m 5
 375.306640625 831.911132812 l 1029
648.932617188 287.955078125 m 5
 564.647460938 319.124023438 379.754882812 430.978515625 375.306640625 629.713867188 c 5
 379.084960938 438.779296875 204.088867188 317.908203125 103.877929688 290.153320312 c 1029
EndSplineSet
Fore
SplineSet
687 306 m 1x70
 680 287 674 268 667 249 c 1xb0
 639 260 l 2
 592 277 544 306 494 345 c 0
 444 384 404 433 377 491 c 1
 351 432 313 382 262 342 c 0
 211 302 161 274 112 261 c 1
 83 261 l 1
 83 282 l 1
 67 311 l 1
 96 311 l 1
 120 318 146 330 174 347 c 0
 202 364 228 386 254 412 c 0
 280 438 302 468 319 505 c 0
 336 542 345 579 345 618 c 2
 345 862 l 1
 405 862 l 1
 405 630 l 2
 406 588 415 548 434 510 c 0
 453 472 476 441 504 416 c 0
 532 391 560 370 586 354 c 0
 612 338 636 325 659 316 c 2
 687 306 l 1x70
EndSplineSet
Substitution2: "Single Substitution lookup 82 subtable" xy.cvc.3
Substitution2: "Single Substitution lookup 71 subtable" xy.cvc.1
Substitution2: "Single Substitution lookup 64 subtable" xy.ccv.2
Substitution2: "Single Substitution lookup 60 subtable" xy.cvc.3
Substitution2: "Single Substitution lookup 56 subtable" xy.cvc.1
Substitution2: "Single Substitution lookup 54 subtable" xy.ccv.1
EndChar

StartChar: iy
Encoding: 8 60264 8
Width: 750
VWidth: 2427
Flags: W
HStem: 256 59<132 680>
VStem: 72 60<315 858>
AnchorPoint: "Above" 375 230 basechar 0
LayerCount: 2
Back
SplineSet
101.877929688 827.811523438 m 5
 101.877929688 284.955078125 l 5
 650.229492188 285.50390625 l 1029
EndSplineSet
Fore
SplineSet
72 858 m 1
 132 858 l 1
 132 315 l 1
 680 315 l 1
 680 256 l 1
 102 256 l 2
 95 256 88 259 82 264 c 0
 76 269 72 276 72 285 c 2
 72 858 l 1
EndSplineSet
Substitution2: "Single Substitution lookup 82 subtable" iy.cvc.3
Substitution2: "Single Substitution lookup 71 subtable" iy.cvc.1
Substitution2: "Single Substitution lookup 64 subtable" iy.ccv.2
Substitution2: "Single Substitution lookup 60 subtable" iy.cvc.3
Substitution2: "Single Substitution lookup 56 subtable" iy.cvc.1
Substitution2: "Single Substitution lookup 54 subtable" iy.ccv.1
EndChar

StartChar: ry
Encoding: 9 60265 9
Width: 750
VWidth: 2427
Flags: W
DStem2: 60 284 102 243 0.707107 0.707107<0.699705 386.787 447.599 447.599> 375 601 333 559 0.706507 -0.707706<-386.03 0 60.155 446.998>
AnchorPoint: "Above" 375 230 basechar 0
LayerCount: 2
Back
SplineSet
101.877929688 284.955078125 m 5
 649.130859375 832.208007812 l 1053
101.877929688 832.208007812 m 5
 649.130859375 284.955078125 l 1029
EndSplineSet
Fore
SplineSet
60 832 m 1
 75 846 89 860 102 874 c 1
 375 601 l 1
 650 874 l 1
 664 859 678 845 692 832 c 1
 418 559 l 1
 691 284 l 1
 677 270 663 257 649 243 c 1
 375 516 l 1
 102 243 l 1
 88 257 74 271 60 284 c 1
 333 559 l 1
 60 832 l 1
EndSplineSet
Substitution2: "Single Substitution lookup 82 subtable" ry.cvc.3
Substitution2: "Single Substitution lookup 71 subtable" ry.cvc.1
Substitution2: "Single Substitution lookup 64 subtable" ry.ccv.2
Substitution2: "Single Substitution lookup 60 subtable" ry.cvc.3
Substitution2: "Single Substitution lookup 56 subtable" ry.cvc.1
Substitution2: "Single Substitution lookup 54 subtable" ry.ccv.1
Substitution2: "Single Substitution lookup 52 subtable" ry.ccv.2
Substitution2: "Single Substitution lookup 50 subtable" ry.ccv.2
Substitution2: "Single Substitution lookup 48 subtable" ry.ccv.2
Substitution2: "Single Substitution lookup 45 subtable" ry.ccv.2
Substitution2: "Single Substitution lookup 43 subtable" ry.ccv.2
Substitution2: "Single Substitution lookup 40 subtable" ry.ccv.2
Substitution2: "Single Substitution lookup 33 subtable" ry.ccv.2
Substitution2: "Single Substitution lookup 20 subtable" ry.ccv.2
Substitution2: "Single Substitution lookup 12 subtable" ry.ccv.2
Substitution2: "Single Substitution lookup 10 subtable" ry.ccv.2
Substitution2: "Single Substitution lookup 8 subtable" ry.ccv.2
Substitution2: "Single Substitution lookup 6 subtable" ry.ccv.2
EndChar

StartChar: my
Encoding: 16 60272 16
Width: 750
VWidth: 2427
Flags: W
HStem: 255 60<132 619> 802 60<132 619>
VStem: 72 60<315 802> 619 60<315 802>
AnchorPoint: "Above" 375 230 basechar 0
LayerCount: 2
Back
SplineSet
101.877929688 832.208007812 m 5
 649.130859375 832.208007812 l 5
 649.130859375 284.955078125 l 5
 101.877929688 284.955078125 l 5
 101.877929688 832.208007812 l 5
EndSplineSet
Fore
SplineSet
102 862 m 2
 649 862 l 2
 658 862 664 858 670 852 c 0
 676 846 679 839 679 832 c 2
 679 285 l 2
 679 276 676 270 670 264 c 0
 664 258 656 255 649 255 c 2
 102 255 l 2
 93 255 86 258 80 264 c 0
 74 270 72 278 72 285 c 2
 72 832 l 2
 72 841 76 848 82 854 c 0
 88 860 95 862 102 862 c 2
132 802 m 1
 132 315 l 1
 619 315 l 1
 619 802 l 1
 132 802 l 1
EndSplineSet
Substitution2: "Single Substitution lookup 82 subtable" my.cvc.3
Substitution2: "Single Substitution lookup 71 subtable" my.cvc.1
Substitution2: "Single Substitution lookup 64 subtable" my.ccv.2
Substitution2: "Single Substitution lookup 60 subtable" my.cvc.3
Substitution2: "Single Substitution lookup 56 subtable" my.cvc.1
Substitution2: "Single Substitution lookup 54 subtable" my.ccv.1
Substitution2: "Single Substitution lookup 38 subtable" my.ccv.2
Substitution2: "Single Substitution lookup 30 subtable" my.ccv.2
Substitution2: "Single Substitution lookup 25 subtable" my.ccv.2
Substitution2: "Single Substitution lookup 17 subtable" my.ccv.2
EndChar

StartChar: by
Encoding: 17 60273 17
Width: 750
VWidth: 2427
Flags: W
HStem: 255 60<132 679> 802 60<132 679>
VStem: 72 60<315 802>
AnchorPoint: "Above" 375 230 basechar 0
LayerCount: 2
Back
SplineSet
649.130859375 284.955078125 m 5
 101.877929688 284.955078125 l 5
 101.877929688 832.208007812 l 5
 649.130859375 832.208007812 l 1029
EndSplineSet
Fore
SplineSet
679 315 m 1
 679 255 l 1
 102 255 l 2
 93 255 86 258 80 264 c 0
 74 270 72 278 72 285 c 2
 72 832 l 2
 72 841 76 848 82 854 c 0
 88 860 95 862 102 862 c 2
 679 862 l 1
 679 802 l 1
 132 802 l 1
 132 315 l 1
 679 315 l 1
EndSplineSet
Substitution2: "Single Substitution lookup 82 subtable" by.cvc.3
Substitution2: "Single Substitution lookup 71 subtable" by.cvc.1
Substitution2: "Single Substitution lookup 64 subtable" by.ccv.2
Substitution2: "Single Substitution lookup 60 subtable" by.cvc.3
Substitution2: "Single Substitution lookup 56 subtable" by.cvc.1
Substitution2: "Single Substitution lookup 54 subtable" by.ccv.1
Substitution2: "Single Substitution lookup 34 subtable" by.ccv.2
Substitution2: "Single Substitution lookup 21 subtable" by.ccv.2
EndChar

StartChar: py
Encoding: 18 60274 18
Width: 750
VWidth: 2427
Flags: W
HStem: 255 60<72 619> 802 60<72 619>
VStem: 619 60<315 802>
AnchorPoint: "Above" 375 230 basechar 0
LayerCount: 2
Back
SplineSet
101.877929688 832.208007812 m 5
 649.130859375 832.208007812 l 5
 649.130859375 284.955078125 l 5
 101.877929688 284.955078125 l 1029
EndSplineSet
Fore
SplineSet
72 802 m 1
 72 862 l 1
 649 862 l 2
 658 862 664 858 670 852 c 0
 676 846 679 839 679 832 c 2
 679 285 l 2
 679 276 676 270 670 264 c 0
 664 258 656 255 649 255 c 2
 72 255 l 1
 72 315 l 1
 619 315 l 1
 619 802 l 1
 72 802 l 1
EndSplineSet
Substitution2: "Single Substitution lookup 82 subtable" py.cvc.3
Substitution2: "Single Substitution lookup 71 subtable" py.cvc.1
Substitution2: "Single Substitution lookup 64 subtable" py.ccv.2
Substitution2: "Single Substitution lookup 60 subtable" py.cvc.3
Substitution2: "Single Substitution lookup 56 subtable" py.cvc.1
Substitution2: "Single Substitution lookup 54 subtable" py.ccv.1
Substitution2: "Single Substitution lookup 26 subtable" py.ccv.2
Substitution2: "Single Substitution lookup 13 subtable" py.ccv.2
EndChar

StartChar: vy
Encoding: 19 60275 19
Width: 750
VWidth: 2427
Flags: W
HStem: 255 60<132 359.96> 842 20G<72 132>
VStem: 72 60<315 862>
DStem2: 626 851 673 814 0.616308 0.787505<-224.727 29.4448>
AnchorPoint: "Above" 375 230 basechar 0
LayerCount: 2
Back
SplineSet
101.877929688 832.208007812 m 5
 101.877929688 285.50390625 l 5
 375.50390625 285.50390625 l 5
 450.2578125 527.595703125 513.514648438 661.485351562 649.130859375 832.208007812 c 1029
EndSplineSet
Fore
SplineSet
72 862 m 1
 132 862 l 1
 132 315 l 1
 353 315 l 1
 390 433 429 532 468 610 c 0
 507 688 560 768 626 851 c 2
 644 874 l 1
 660 862 676 850 691 837 c 1
 673 814 l 2
 607 731 555 650 517 574 c 0
 479 498 441 399 404 277 c 0
 399 262 390 255 375 255 c 2
 102 255 l 2
 95 255 88 258 82 264 c 0
 76 270 72 276 72 285 c 2
 72 862 l 1
EndSplineSet
Substitution2: "Single Substitution lookup 82 subtable" vy.cvc.3
Substitution2: "Single Substitution lookup 71 subtable" vy.cvc.1
Substitution2: "Single Substitution lookup 64 subtable" vy.ccv.2
Substitution2: "Single Substitution lookup 60 subtable" vy.cvc.3
Substitution2: "Single Substitution lookup 56 subtable" vy.cvc.1
Substitution2: "Single Substitution lookup 54 subtable" vy.ccv.1
Substitution2: "Single Substitution lookup 35 subtable" vy.ccv.2
Substitution2: "Single Substitution lookup 22 subtable" vy.ccv.2
EndChar

StartChar: fy
Encoding: 20 60276 20
Width: 750
VWidth: 2427
Flags: W
HStem: 255 21G<619 679> 802 60<326.136 619>
VStem: 619 60<255 802>
DStem2: 60 280 107 243 0.613359 0.789804<-0.488327 253.606> 245 658 294 600 0.1839 0.982945<-204.433 156.992>
AnchorPoint: "Above" 375 230 basechar 0
LayerCount: 2
Back
SplineSet
101.877929688 284.955078125 m 5
 199.822265625 408.008789062 261.1953125 483.163085938 302.9765625 832.208007812 c 5
 649.130859375 832.208007812 l 5
 649.130859375 284.955078125 l 1029
EndSplineSet
Fore
SplineSet
107 243 m 1
 91 255 75 267 60 280 c 1
 78 304 l 2
 105 338 123 361 133 374 c 0
 143 387 158 410 176 442 c 0
 194 474 207 506 216 536 c 0
 225 566 234 607 245 658 c 0
 256 709 265 768 273 836 c 0
 274 843 278 849 284 854 c 0
 290 859 296 862 303 862 c 2
 649 862 l 2
 658 862 664 858 670 852 c 0
 676 846 679 839 679 832 c 2
 679 255 l 1
 619 255 l 1
 619 802 l 1
 329 802 l 1
 319 723 307 656 294 600 c 0
 281 544 266 495 246 454 c 0
 226 413 208 381 193 358 c 0
 178 335 155 304 125 266 c 2
 107 243 l 1
EndSplineSet
Substitution2: "Single Substitution lookup 82 subtable" fy.cvc.3
Substitution2: "Single Substitution lookup 71 subtable" fy.cvc.1
Substitution2: "Single Substitution lookup 64 subtable" fy.ccv.2
Substitution2: "Single Substitution lookup 60 subtable" fy.cvc.3
Substitution2: "Single Substitution lookup 56 subtable" fy.cvc.1
Substitution2: "Single Substitution lookup 54 subtable" fy.ccv.1
Substitution2: "Single Substitution lookup 27 subtable" fy.ccv.2
Substitution2: "Single Substitution lookup 14 subtable" fy.ccv.2
EndChar

StartChar: ky
Encoding: 21 60277 21
Width: 750
VWidth: 2427
Flags: W
HStem: 244 21G<84 127.627>
DStem2: 61 298 89 244 0.888027 0.459791<-0.165613 589.93> 88 876 62 821 0.900278 -0.435316<0.535174 581.08>
AnchorPoint: "Above" 375 230 basechar 0
LayerCount: 2
Back
SplineSet
101.877929688 835.50390625 m 5
 652.427734375 569.5703125 l 5
 101.877929688 284.955078125 l 1029
EndSplineSet
Fore
SplineSet
62 821 m 1
 71 839 79 858 88 876 c 1
 665 597 l 2
 673 593 679 586 682 576 c 0
 685 566 684 558 680 550 c 1
 89 244 l 1
 79 262 70 280 61 298 c 1
 585 569 l 1
 62 821 l 1
EndSplineSet
Substitution2: "Single Substitution lookup 82 subtable" ky.cvc.3
Substitution2: "Single Substitution lookup 71 subtable" ky.cvc.1
Substitution2: "Single Substitution lookup 64 subtable" ky.ccv.2
Substitution2: "Single Substitution lookup 60 subtable" ky.cvc.3
Substitution2: "Single Substitution lookup 56 subtable" ky.cvc.1
Substitution2: "Single Substitution lookup 54 subtable" ky.ccv.1
Substitution2: "Single Substitution lookup 29 subtable" ky.ccv.2
Substitution2: "Single Substitution lookup 16 subtable" ky.ccv.2
EndChar

StartChar: cy
Encoding: 22 60278 22
Width: 750
VWidth: 2427
Flags: W
HStem: 247 67<618.506 658> 529 60<72 307 440 679> 842 20G<345 405>
VStem: 345 60<589 862>
DStem2: 62 300 87 245 0.919145 0.393919<1.31306 126.698>
AnchorPoint: "Above" 375 230 basechar 0
LayerCount: 2
Back
SplineSet
102.009765625 559.009765625 m 5
 649.009765625 559.009765625 l 1029
375.009765625 646.009765625 m 5
 375.009765625 832.009765625 l 1029
102.009765625 285.009765625 m 5
 159.009765625 311.009765625 372.009765625 483.009765625 375.009765625 646.009765625 c 5
 372.009765625 489.009765625 578.009765625 308.009765625 649.009765625 285.009765625 c 1029
EndSplineSet
Fore
SplineSet
72 529 m 1
 72 589 l 1
 345 589 l 1
 345 862 l 1
 405 862 l 1
 405 589 l 1
 679 589 l 1
 679 529 l 1
 440 529 l 1
 467 481 505 435 552 391 c 0
 599 347 634 321 658 314 c 2
 687 304 l 1
 687 276 l 1
 668 247 l 1
 640 247 l 1
 603 259 556 292 501 348 c 0
 446 404 403 463 374 526 c 1
 345 466 303 410 248 358 c 0
 193 306 149 273 114 258 c 2
 87 245 l 1
 75 273 l 1
 62 300 l 1
 90 312 l 2
 113 323 149 350 196 393 c 0
 243 436 280 482 307 529 c 1
 72 529 l 1
EndSplineSet
Substitution2: "Single Substitution lookup 82 subtable" cy.cvc.3
Substitution2: "Single Substitution lookup 71 subtable" cy.cvc.1
Substitution2: "Single Substitution lookup 64 subtable" cy.ccv.2
Substitution2: "Single Substitution lookup 60 subtable" cy.cvc.3
Substitution2: "Single Substitution lookup 56 subtable" cy.cvc.1
Substitution2: "Single Substitution lookup 54 subtable" cy.ccv.1
Substitution2: "Single Substitution lookup 39 subtable" cy.ccv.2
EndChar

StartChar: yhy
Encoding: 23 60279 23
Width: 750
VWidth: 2427
Flags: W
HStem: 255 21G<619 679> 842 20G<72 132 648.5 659.5>
VStem: 72 60<357 862> 619 60<255 760>
DStem2: 132 357 109 250 0.707107 0.707107<0 629.325>
AnchorPoint: "Above" 375 230 basechar 0
LayerCount: 2
Back
SplineSet
102.009765625 832.009765625 m 5
 102.009765625 285.009765625 l 5
 649.009765625 832.009765625 l 5
 649.009765625 285.009765625 l 1029
EndSplineSet
Fore
SplineSet
72 862 m 1
 132 862 l 1
 132 357 l 1
 628 853 l 2
 634 859 643 862 654 862 c 0
 665 862 674 858 679 851 c 1
 679 255 l 1
 619 255 l 1
 619 760 l 1
 109 250 l 1
 100 249 92 252 84 260 c 0
 76 268 72 276 72 285 c 2
 72 862 l 1
EndSplineSet
Substitution2: "Single Substitution lookup 82 subtable" yhy.cvc.3
Substitution2: "Single Substitution lookup 71 subtable" yhy.cvc.1
Substitution2: "Single Substitution lookup 64 subtable" yhy.ccv.2
Substitution2: "Single Substitution lookup 60 subtable" yhy.cvc.3
Substitution2: "Single Substitution lookup 56 subtable" yhy.cvc.1
Substitution2: "Single Substitution lookup 54 subtable" yhy.ccv.1
EndChar

StartChar: uy
Encoding: 24 60280 24
Width: 750
VWidth: 2427
Flags: W
HStem: 255 60<72 622> 844 20G<622 682>
VStem: 622 60<315 864>
AnchorPoint: "Above" 375 230 basechar 0
LayerCount: 2
Back
SplineSet
101.877929688 285.50390625 m 5
 652.427734375 285.50390625 l 5
 652.427734375 834.405273438 l 1029
EndSplineSet
Fore
SplineSet
72 255 m 1
 72 315 l 1
 622 315 l 1
 622 864 l 1
 682 864 l 1
 682 285 l 2
 682 278 680 270 674 264 c 0
 668 258 661 255 652 255 c 2
 72 255 l 1
EndSplineSet
Substitution2: "Single Substitution lookup 82 subtable" uy.cvc.3
Substitution2: "Single Substitution lookup 71 subtable" uy.cvc.1
Substitution2: "Single Substitution lookup 64 subtable" uy.ccv.2
Substitution2: "Single Substitution lookup 60 subtable" uy.cvc.3
Substitution2: "Single Substitution lookup 56 subtable" uy.cvc.1
Substitution2: "Single Substitution lookup 54 subtable" uy.ccv.1
EndChar

StartChar: ly
Encoding: 25 60281 25
Width: 750
VWidth: 2427
Flags: W
HStem: 255 60<132 679> 529 60<132 619> 802 60<72 619>
VStem: 72 60<315 529> 619 60<589 802>
CounterMasks: 1 e0
AnchorPoint: "Above" 375 230 basechar 0
LayerCount: 2
Back
SplineSet
101.877929688 832.208007812 m 5
 649.130859375 832.208007812 l 5
 649.130859375 558.581054688 l 5
 101.877929688 558.581054688 l 5
 101.877929688 284.955078125 l 5
 649.130859375 284.955078125 l 1029
EndSplineSet
Fore
SplineSet
72 802 m 1
 72 862 l 1
 649 862 l 2
 658 862 664 858 670 852 c 0
 676 846 679 839 679 832 c 2
 679 559 l 2
 679 550 676 544 670 538 c 0
 664 532 656 529 649 529 c 2
 132 529 l 1
 132 315 l 1
 679 315 l 1
 679 255 l 1
 102 255 l 2
 95 255 88 258 82 264 c 0
 76 270 72 276 72 285 c 2
 72 559 l 2
 72 566 74 574 80 580 c 0
 86 586 93 589 102 589 c 2
 619 589 l 1
 619 802 l 1
 72 802 l 1
EndSplineSet
Substitution2: "Single Substitution lookup 82 subtable" ly.cvc.3
Substitution2: "Single Substitution lookup 71 subtable" ly.cvc.1
Substitution2: "Single Substitution lookup 64 subtable" ly.ccv.2
Substitution2: "Single Substitution lookup 60 subtable" ly.cvc.3
Substitution2: "Single Substitution lookup 56 subtable" ly.cvc.1
Substitution2: "Single Substitution lookup 54 subtable" ly.ccv.1
Substitution2: "Single Substitution lookup 51 subtable" ly.ccv.2
Substitution2: "Single Substitution lookup 49 subtable" ly.ccv.2
Substitution2: "Single Substitution lookup 47 subtable" ly.ccv.2
Substitution2: "Single Substitution lookup 42 subtable" ly.ccv.2
Substitution2: "Single Substitution lookup 32 subtable" ly.ccv.2
Substitution2: "Single Substitution lookup 19 subtable" ly.ccv.2
Substitution2: "Single Substitution lookup 11 subtable" ly.ccv.2
Substitution2: "Single Substitution lookup 9 subtable" ly.ccv.2
Substitution2: "Single Substitution lookup 7 subtable" ly.ccv.2
Substitution2: "Single Substitution lookup 5 subtable" ly.ccv.2
EndChar

StartChar: denpabu
Encoding: 31 60287 31
Width: 750
VWidth: 230
Flags: W
HStem: 254 60<274.433 475.567> 802 60<274.433 475.567>
VStem: 72 60<455.593 660.407> 618 60<455.593 660.407>
AnchorPoint: "Above" 375 230 basechar 0
LayerCount: 2
Back
SplineSet
102 558 m 4
 102 709 224 832 375 832 c 4
 526 832 648 709 648 558 c 4
 648 407 526 284 375 284 c 4
 224 284 102 407 102 558 c 4
EndSplineSet
Fore
SplineSet
72 558 m 0
 72 642 101.5 713.666666667 160.5 773 c 0
 219.5 832.333333333 291 862 375 862 c 0
 459 862 530.5 832.333333333 589.5 773 c 0
 648.5 713.666666667 678 642 678 558 c 0
 678 474 648.5 402.333333333 589.5 343 c 0
 530.5 283.666666667 459 254 375 254 c 0
 291 254 219.5 283.666666667 160.5 343 c 0
 101.5 402.333333333 72 474 72 558 c 0
132 558 m 0
 132 490.666666667 155.666666667 433.166666667 203 385.5 c 0
 250.333333333 337.833333333 307.666666667 314 375 314 c 0
 442.333333333 314 499.666666667 337.833333333 547 385.5 c 0
 594.333333333 433.166666667 618 490.666666667 618 558 c 0
 618 625.333333333 594.333333333 682.833333333 547 730.5 c 0
 499.666666667 778.166666667 442.333333333 802 375 802 c 0
 307.666666667 802 250.333333333 778.166666667 203 730.5 c 0
 155.666666667 682.833333333 132 625.333333333 132 558 c 0
EndSplineSet
Substitution2: "Single Substitution lookup 77 subtable" denpabu.cvc.1
Substitution2: "Single Substitution lookup 75 subtable" denpabu.cvc.3
Substitution2: "Single Substitution lookup 66 subtable" denpabu.ccv.1
EndChar

StartChar: ebu.cv
Encoding: 42 -1 32
Width: 0
VWidth: 230
Flags: W
HStem: -143 21G<72 132> 106 60<132 679>
VStem: 72 60<-143 106>
AnchorPoint: "Above" 375 230 mark 0
LayerCount: 2
Back
SplineSet
649.009765625 136.009765625 m 25
 102.009765625 136.009765625 l 29
 102.009765625 -112.990234375 l 1049
EndSplineSet
Fore
SplineSet
679 166 m 1
 679 106 l 1
 132 106 l 1
 132 -143 l 1
 72 -143 l 1
 72 136 l 2
 72 143 74 150 80 156 c 0
 86 162 93 166 102 166 c 2
 679 166 l 1
EndSplineSet
Substitution2: "Single Substitution lookup 73 subtable" ebu.cvc
Substitution2: "Single Substitution lookup 69 subtable" ebu.ccv
EndChar

StartChar: obu.cv
Encoding: 43 -1 33
Width: 0
VWidth: 230
Flags: W
HStem: -143 21G<619 679> 106 60<72 619>
VStem: 619 60<-143 106>
AnchorPoint: "Above" 375 230 mark 0
LayerCount: 2
Back
SplineSet
102.009765625 136.009765625 m 29
 649.009765625 136.009765625 l 29
 649.009765625 -112.990234375 l 1053
EndSplineSet
Fore
SplineSet
72 106 m 1
 72 166 l 1
 649 166 l 2
 658 166 664 162 670 156 c 0
 676 150 679 143 679 136 c 2
 679 -143 l 1
 619 -143 l 1
 619 106 l 1
 72 106 l 1
EndSplineSet
Substitution2: "Single Substitution lookup 73 subtable" obu.cvc
Substitution2: "Single Substitution lookup 69 subtable" obu.ccv
EndChar

StartChar: ibu.cv
Encoding: 44 -1 34
Width: 0
VWidth: 230
Flags: W
HStem: -143 21G<72 132> 107 60<132 345 405 679>
VStem: 72 60<-143 107> 345 60<-46 107>
AnchorPoint: "Above" 375 230 mark 0
LayerCount: 2
Back
SplineSet
375 136 m 29
 375 -16 l 1029
649 136.59375 m 5
 102 136.59375 l 5
 102 -112.857421875 l 1029
EndSplineSet
Fore
SplineSet
679 167 m 1
 679 107 l 1
 405 107 l 1
 405 -46 l 1
 345 -46 l 1
 345 107 l 1
 132 107 l 1
 132 -143 l 1
 72 -143 l 1
 72 137 l 2
 72 144.333333333 74.8333333333 151.166666667 80.5 157.5 c 0
 86.1666666667 163.833333333 93.3333333333 167 102 167 c 2
 679 167 l 1
EndSplineSet
Substitution2: "Single Substitution lookup 73 subtable" ibu.cvc
Substitution2: "Single Substitution lookup 69 subtable" ibu.ccv
EndChar

StartChar: ny.cvc.1
Encoding: 32 -1 35
Width: 810
VWidth: 230
Flags: W
HStem: 477 50<220 591> 642 50<195 616> 807 50<220 591>
VStem: 195 25<642 692> 591 25<642 692>
CounterMasks: 1 e0
AnchorPoint: "Above" 405 230 basechar 0
LayerCount: 2
Back
SplineSet
195 832 m 5
 616 832 l 5
 616 502 l 5
 195 502 l 5
 195 832 l 5
195 667 m 5
 616 667 l 1029
EndSplineSet
Fore
SplineSet
220 807 m 1
 220 527 l 1
 591 527 l 1
 591 807 l 1
 220 807 l 1
195 857 m 2
 616 857 l 2
 631.132537856 857 641 842.729904333 641 832 c 2
 641 502 l 2
 641 486.867462144 626.729904333 477 616 477 c 2
 195 477 l 2
 179.867462144 477 170 491.270095667 170 502 c 2
 170 832 l 2
 170 847.132537856 184.270095667 857 195 857 c 2
195 667 m 1
 195 692 l 1
 616 692 l 1
 616 667 l 1
 616 642 l 1
 195 642 l 1
 195 667 l 1
EndSplineSet
EndChar

StartChar: ny.ccv.1
Encoding: 96 -1 36
Width: 810
VWidth: 230
Flags: W
HStem: 255 60<134 315> 529 60<134 315> 802 60<134 315>
VStem: 74 60<315 529 589 802> 315 60<315 529 589 802>
CounterMasks: 1 e0
AnchorPoint: "Above" 405 230 basechar 0
LayerCount: 2
Back
SplineSet
345.009765625 559.009765625 m 5
 105.009765625 559.009765625 l 1029
104.009765625 832.009765625 m 5
 345.009765625 832.009765625 l 5
 345.009765625 285.009765625 l 5
 104.009765625 285.009765625 l 5
 104.009765625 832.009765625 l 5
EndSplineSet
Fore
SplineSet
104 862 m 2
 345 862 l 2
 354 862 360 858 366 852 c 0
 372 846 375 839 375 832 c 2
 375 285 l 2
 375 276 372 270 366 264 c 0
 360 258 352 255 345 255 c 2
 104 255 l 2
 95 255 88 258 82 264 c 0
 76 270 74 278 74 285 c 2
 74 832 l 2
 74 841 78 848 84 854 c 0
 90 860 97 862 104 862 c 2
134 589 m 1
 315 589 l 1
 315 802 l 1
 134 802 l 1
 134 589 l 1
134 529 m 1
 134 315 l 1
 315 315 l 1
 315 529 l 1
 134 529 l 1
EndSplineSet
EndChar

StartChar: ebu.ccv
Encoding: 106 -1 38
Width: 0
VWidth: 230
Flags: W
HStem: -143 21G<74 134> 106 60<134 375 435 738>
VStem: 74 60<-143 106> 375 60<-46 106>
AnchorPoint: "Above" 405 230 mark 0
LayerCount: 2
Back
SplineSet
405.009765625 136.009765625 m 5
 405.009765625 -15.990234375 l 1029
708.009765625 136.009765625 m 5
 104.009765625 136.009765625 l 5
 104.009765625 -112.990234375 l 1053
EndSplineSet
Fore
SplineSet
738 166 m 1
 738 106 l 1
 435 106 l 1
 435 -46 l 1
 375 -46 l 1
 375 106 l 1
 134 106 l 1
 134 -143 l 1
 74 -143 l 1
 74 136 l 2
 74 143 76 150 82 156 c 0
 88 162 95 166 104 166 c 2
 738 166 l 1
EndSplineSet
EndChar

StartChar: dy.cvc.1
Encoding: 33 -1 40
Width: 810
VWidth: 230
Flags: W
HStem: 472 60<225 646> 637 60<225 646> 802 60<225 646>
VStem: 165 60<532 637 697 802>
CounterMasks: 1 e0
AnchorPoint: "Above" 405 230 basechar 0
LayerCount: 2
Back
SplineSet
197.009765625 667.009765625 m 1
 616.009765625 667.009765625 l 1025
616.009765625 502.009765625 m 1
 195.009765625 502.009765625 l 1
 195.009765625 832.009765625 l 1
 616.009765625 832.009765625 l 1025
EndSplineSet
Fore
SplineSet
646 532 m 1
 646 472 l 1
 195 472 l 2
 186 472 180 476 174 482 c 0
 168 488 165 495 165 502 c 2
 165 832 l 2
 165 841 168 848 174 854 c 0
 180 860 188 862 195 862 c 2
 646 862 l 1
 646 802 l 1
 225 802 l 1
 225 697 l 1
 646 697 l 1
 646 637 l 1
 225 637 l 1
 225 532 l 1
 646 532 l 1
EndSplineSet
EndChar

StartChar: ty.cvc.1
Encoding: 34 -1 41
Width: 810
VWidth: 230
Flags: W
HStem: 472 60<165 586> 637 60<165 586> 802 60<165 586>
VStem: 586 60<532 637 697 802>
CounterMasks: 1 e0
AnchorPoint: "Above" 405 230 basechar 0
LayerCount: 2
Back
SplineSet
615.009765625 667.009765625 m 1
 195.009765625 667.009765625 l 1025
195.009765625 832.009765625 m 5
 616.009765625 832.009765625 l 1
 616.009765625 502.009765625 l 1
 195.009765625 502.009765625 l 1025
EndSplineSet
Fore
SplineSet
165 802 m 1
 165 862 l 1
 616 862 l 2
 625 862 632 858 638 852 c 0
 644 846 646 839 646 832 c 2
 646 502 l 2
 646 493 642 486 636 480 c 0
 630 474 623 472 616 472 c 2
 165 472 l 1
 165 532 l 1
 586 532 l 1
 586 637 l 1
 165 637 l 1
 165 697 l 1
 586 697 l 1
 586 802 l 1
 165 802 l 1
EndSplineSet
EndChar

StartChar: zy.cvc.1
Encoding: 35 -1 42
Width: 810
VWidth: 230
Flags: W
HStem: 473 60<225 536> 637 60<225 542> 842 20G<165 225 618.2 662.25>
VStem: 165 60<533 637 697 862> 536 61<533.044 635.914>
DStem2: 631 873 665 816 0.539054 0.842271<-161.009 0>
AnchorPoint: "Above" 405 230 basechar 0
LayerCount: 2
Back
SplineSet
554.009765625 667.009765625 m 25
 198.009765625 667.009765625 l 1049
195.009765625 832.009765625 m 25
 195.009765625 503.009765625 l 25
 565.009765625 503.009765625 l 17
 570.009765625 568.009765625 557.009765625 701.009765625 640.009765625 832.009765625 c 1033
EndSplineSet
Fore
SplineSet
165 862 m 1
 225 862 l 1
 225 697 l 1
 552 697 l 1
 564 752 586 802 615 848 c 2
 631 873 l 1
 681 841 l 1
 665 816 l 2
 650 793 639 769 629 744 c 0
 619 719 612 695 608 671 c 0
 604 647 602 626 600 608 c 0
 598 590 598 570 597 547 c 0
 596 524 596 509 595 501 c 0
 594 493 591 486 585 481 c 0
 579 476 573 473 565 473 c 2
 195 473 l 2
 188 473 180 476 174 482 c 0
 168 488 165 494 165 503 c 2
 165 862 l 1
225 637 m 1
 225 533 l 1
 536 533 l 1
 537 580 539 614 542 637 c 1
 225 637 l 1
EndSplineSet
EndChar

StartChar: sy.cvc.1
Encoding: 36 -1 43
Width: 810
VWidth: 230
Flags: W
HStem: 472 21G<149.75 193.8 586 646> 637 60<270 586> 802 60<276 586>
VStem: 215 61<698.087 801.956> 586 60<472 637 697 802>
DStem2: 131 494 181 462 0.539054 0.842271<6.66134e-16 160.068>
AnchorPoint: "Above" 405 230 basechar 0
LayerCount: 2
Back
SplineSet
258.009765625 667.009765625 m 25
 614.009765625 667.009765625 l 1049
616.009765625 502.009765625 m 25
 616.009765625 832.009765625 l 25
 247.009765625 832.009765625 l 17
 242.009765625 767.009765625 255.009765625 634.009765625 172.009765625 503.009765625 c 1033
EndSplineSet
Fore
SplineSet
646 472 m 1
 586 472 l 1
 586 637 l 1
 259 637 l 1
 247 583 226 533 197 487 c 2
 181 462 l 1
 131 494 l 1
 147 519 l 2
 162 542 173 566 183 591 c 0
 193 616 200 640 204 664 c 0
 208 688 210 709 212 727 c 0
 214 745 214 765 215 788 c 0
 216 811 216 826 217 834 c 0
 218 842 221 849 227 854 c 0
 233 859 239 862 247 862 c 2
 616 862 l 2
 623 862 630 860 636 854 c 0
 642 848 646 841 646 832 c 2
 646 472 l 1
586 697 m 1
 586 802 l 1
 276 802 l 1
 275 755 273 720 270 697 c 1
 586 697 l 1
EndSplineSet
EndChar

StartChar: gy.cvc.1
Encoding: 37 -1 44
Width: 810
VWidth: 230
Flags: W
HStem: 463 21G<581.852 640.857> 851 20G<581.977 640.857>
DStem2: 277 667 165 646 0.931331 -0.364174<0 405.845> 184 695 277 667 0.931028 0.364947<76.3671 482.262>
AnchorPoint: "Above" 405 230 basechar 0
LayerCount: 2
Back
SplineSet
616.009765625 832.009765625 m 1
 195.009765625 667.009765625 l 1
 616.009765625 502.009765625 l 1025
EndSplineSet
Fore
SplineSet
633 871 m 1
 655 815 l 1
 277 667 l 1
 655 519 l 1
 633 463 l 1
 165 646 l 1
 161 654 162 663 166 674 c 0
 170 685 176 692 184 695 c 2
 633 871 l 1
EndSplineSet
EndChar

StartChar: jy.cvc.1
Encoding: 38 -1 45
Width: 810
VWidth: 230
Flags: W
HStem: 472 21G<375 435> 637 60<165 337 467 645> 812 49<569.91 636> 851 20G<170.636 207>
VStem: 375 60<472 635.638>
DStem2: 179 871 156 816 0.919145 -0.393919<0.525226 185.752> 295 818 266 766 0.803155 -0.59577<-95.1288 105.409> 343 783 304 738 0.683574 -0.729882<-77.2893 58.235>
AnchorPoint: "Above" 405 230 basechar 0
LayerCount: 2
Back
SplineSet
195.009765625 667.009765625 m 1
 615.009765625 667.009765625 l 1025
405.009765625 539.009765625 m 1
 405.009765625 502.009765625 l 1029
195.009765625 832.009765625 m 1
 275.009765625 798.009765625 401.009765625 758.009765625 405.009765625 539.009765625 c 1
 401.009765625 749.009765625 516.009765625 801.009765625 616.009765625 832.009765625 c 1025
EndSplineSet
Fore
SplineSet
375 539 m 2xe8
 374 576 370 608 362 637 c 1
 165 637 l 1
 165 697 l 1
 337 697 l 1
 332 705 327 712 321 719 c 0
 315 726 309 733 304 738 c 0
 299 743 293 747 285 753 c 0
 277 759 270 763 266 766 c 0
 262 769 254 773 244 778 c 0
 234 783 228 785 225 787 c 0
 222 789 214 791 203 796 c 0
 192 801 185 803 183 804 c 2
 156 816 l 1
 179 871 l 1xd8
 207 860 l 2
 208 860 214 857 226 852 c 0
 238 847 245 844 248 842 c 0
 251 840 258 837 270 832 c 0
 282 827 290 822 295 818 c 0
 300 814 308 810 318 803 c 0
 328 796 337 789 343 783 c 0
 349 777 356 769 364 760 c 0
 372 751 379 743 385 733 c 0
 391 723 397 712 402 701 c 1
 413 726 426 747 442 766 c 0
 458 785 476 800 496 812 c 0
 516 824 534 833 550 840 c 0
 566 847 585 854 607 861 c 1
 636 861 l 1
 636 841 l 1
 654 812 l 1
 625 812 l 1
 550 789 497 751 467 697 c 1
 645 697 l 1
 645 637 l 1
 444 637 l 1
 438 614 436 588 435 560 c 2
 435 472 l 1
 375 472 l 1
 375 539 l 2xe8
EndSplineSet
EndChar

StartChar: xy.cvc.1
Encoding: 39 -1 46
Width: 810
VWidth: 230
Flags: W
HStem: 463 21G<606 641.5> 473 50<174 250.045> 842 20G<375 435>
VStem: 375 60<657.289 862>
DStem2: 589 544 555 494 0.930895 -0.365288<-111.129 70.5712>
AnchorPoint: "Above" 405 230 basechar 0
LayerCount: 2
Back
SplineSet
405.009765625 772.009765625 m 1
 405.009765625 832.009765625 l 1025
616.1640625 501.756835938 m 1
 532.0078125 532.92578125 405.009765625 581.009765625 405.009765625 772.009765625 c 1
 405.009765625 581.009765625 295.11328125 529.51171875 194.844726562 501.756835938 c 1025
EndSplineSet
Fore
SplineSet
627 530 m 1x30
 627 530 l 1x30
627 530 m 2
 655 519 l 1
 634 463 l 1xb0
 606 474 l 2
 585 482 568 488 555 494 c 0
 542 500 525 509 504 521 c 0
 483 533 464 548 448 565 c 0
 432 582 418 602 407 624 c 1
 396 601 383 581 367 563 c 0
 351 545 333 530 314 519 c 0
 295 508 277 499 260 492 c 0
 243 485 224 479 203 473 c 1
 174 473 l 1
 158 523 l 1
 187 523 l 1x70
 209 529 228 535 244 542 c 0
 260 549 277 559 294 572 c 0
 311 585 326 600 337 617 c 0
 348 634 357 655 364 682 c 0
 371 709 375 738 375 772 c 2
 375 862 l 1
 435 862 l 1
 435 772 l 2
 435 748 437 726 442 706 c 0
 447 686 452 668 458 654 c 0
 464 640 473 627 485 614 c 0
 497 601 506 591 515 584 c 0
 524 577 536 569 552 561 c 0
 568 553 581 547 589 544 c 0
 597 541 610 536 627 530 c 2
EndSplineSet
EndChar

StartChar: iy.cvc.1
Encoding: 40 -1 47
Width: 810
VWidth: 230
Flags: W
HStem: 472 60<225 646> 842 20G<165 225>
VStem: 165 60<532 862>
AnchorPoint: "Above" 405 230 basechar 0
LayerCount: 2
Back
SplineSet
616.1640625 501.756835938 m 1
 194.844726562 501.756835938 l 1
 194.844726562 832.208007812 l 1025
EndSplineSet
Fore
SplineSet
646 532 m 1
 646 472 l 1
 195 472 l 2
 186 472 179 475 173 481 c 0
 167 487 165 495 165 502 c 2
 165 862 l 1
 225 862 l 1
 225 532 l 1
 646 532 l 1
EndSplineSet
EndChar

StartChar: ry.cvc.1
Encoding: 41 -1 48
Width: 810
VWidth: 230
Flags: W
VStem: 357 97<618.5 715.5>
DStem2: 190 874 153 827 0.786901 -0.617079<0 259.148 335.477 594.625> 153 507 190 460 0.786901 0.617079<0.112655 259.26 335.59 594.738>
AnchorPoint: "Above" 405 230 basechar 0
LayerCount: 2
Back
SplineSet
195.009765625 502.009765625 m 1
 616.009765625 832.009765625 l 1025
195.009765625 832.009765625 m 1
 616.009765625 502.009765625 l 1025
EndSplineSet
Fore
SplineSet
153 827 m 1
 190 874 l 1
 406 705 l 1
 621 874 l 1
 658 827 l 1
 454 667 l 1
 658 507 l 1
 621 460 l 1
 406 629 l 1
 190 460 l 1
 153 507 l 1
 357 667 l 1
 153 827 l 1
EndSplineSet
EndChar

StartChar: my.cvc.1
Encoding: 48 -1 49
Width: 810
VWidth: 230
Flags: W
HStem: 473 60<225 586> 802 60<225 586>
VStem: 165 60<533 802> 586 60<533 802>
AnchorPoint: "Above" 405 230 basechar 0
LayerCount: 2
Back
SplineSet
194.844726562 832.208007812 m 1
 616.1640625 832.208007812 l 5
 616.1640625 502.756835938 l 5
 194.844726562 502.756835938 l 1
 194.844726562 832.208007812 l 1
EndSplineSet
Fore
SplineSet
195 862 m 2
 616 862 l 2
 625 862 632 858 638 852 c 0
 644 846 646 839 646 832 c 2
 646 503 l 2
 646 494 642 487 636 481 c 0
 630 475 623 473 616 473 c 2
 195 473 l 2
 186 473 179 476 173 482 c 0
 167 488 165 496 165 503 c 2
 165 832 l 2
 165 841 169 848 175 854 c 0
 181 860 188 862 195 862 c 2
225 802 m 1
 225 533 l 1
 586 533 l 1
 586 802 l 1
 225 802 l 1
EndSplineSet
EndChar

StartChar: by.cvc.1
Encoding: 49 -1 50
Width: 810
VWidth: 230
Flags: W
HStem: 473 60<225 646> 802 60<225 646>
VStem: 165 60<533 802>
AnchorPoint: "Above" 405 230 basechar 0
LayerCount: 2
Back
SplineSet
616.009765625 503.009765625 m 5
 195.009765625 503.009765625 l 1
 195.009765625 832.009765625 l 1
 616.009765625 832.009765625 l 1029
EndSplineSet
Fore
SplineSet
646 533 m 1
 646 473 l 1
 195 473 l 2
 186 473 180 476 174 482 c 0
 168 488 165 496 165 503 c 2
 165 832 l 2
 165 841 168 848 174 854 c 0
 180 860 188 862 195 862 c 2
 646 862 l 1
 646 802 l 1
 225 802 l 1
 225 533 l 1
 646 533 l 1
EndSplineSet
EndChar

StartChar: py.cvc.1
Encoding: 50 -1 51
Width: 810
VWidth: 230
Flags: W
HStem: 473 60<165 586> 802 60<165 586>
VStem: 586 60<533 802>
AnchorPoint: "Above" 405 230 basechar 0
LayerCount: 2
Back
SplineSet
194.844726562 832.208007812 m 1
 616.1640625 832.208007812 l 5
 616.329101562 503.20703125 l 5
 195.009765625 503.009765625 l 1025
EndSplineSet
Fore
SplineSet
165 802 m 1
 165 862 l 1
 616 862 l 2
 624 862 631 859 637 853 c 0
 643 847 646 840 646 832 c 2
 646 503 l 2
 646 494 643 488 637 482 c 0
 631 476 623 473 616 473 c 2
 165 473 l 1
 165 533 l 1
 586 533 l 1
 586 802 l 1
 165 802 l 1
EndSplineSet
EndChar

StartChar: vy.cvc.1
Encoding: 51 -1 52
Width: 810
VWidth: 230
Flags: W
HStem: 473 60<225 536> 842 20G<165 225>
VStem: 165 60<533 862> 536 60<533 713.083>
DStem2: 631 874 665 816 0.524097 0.851658<-169.812 -1.37576>
AnchorPoint: "Above" 405 230 basechar 0
LayerCount: 2
Back
SplineSet
194.844726562 832.208007812 m 29
 194.844726562 502.756835938 l 29
 564.735351562 502.756835938 l 17
 569.635742188 568.009765625 556.904296875 701.357421875 640.120117188 832.208007812 c 1033
EndSplineSet
Fore
SplineSet
165 862 m 1
 225 862 l 1
 225 533 l 1
 536 533 l 1
 537 558 537 575 537 583 c 0
 537 591 539 610 542 638 c 0
 545 666 549 689 554 707 c 0
 559 725 567 748 577 774 c 0
 587 800 600 825 615 848 c 2
 631 874 l 1
 682 841 l 1
 665 816 l 2
 650 793 639 770 629 745 c 0
 619 720 612 695 608 671 c 0
 604 647 602 625 600 608 c 0
 598 591 597 570 596 547 c 0
 595 524 596 508 595 500 c 0
 594 492 591 486 585 481 c 0
 579 476 573 473 565 473 c 2
 195 473 l 2
 188 473 181 475 175 481 c 0
 169 487 165 494 165 503 c 2
 165 862 l 1
EndSplineSet
EndChar

StartChar: fy.cvc.1
Encoding: 52 -1 53
Width: 810
VWidth: 230
Flags: W
HStem: 473 21G<150.091 193.308 587 647> 802 60<276 587>
VStem: 212 58<609.903 802> 587 60<473 802>
DStem2: 147 519 181 461 0.524097 0.851658<-30.2011 138.236>
AnchorPoint: "Above" 405 230 basechar 0
LayerCount: 2
Back
SplineSet
617.120117188 502.756835938 m 25
 617.120117188 832.208007812 l 25
 247.229492188 832.208007812 l 17
 242.329101562 766.955078125 255.060546875 633.607421875 171.844726562 502.756835938 c 1033
EndSplineSet
Fore
SplineSet
647 473 m 1
 587 473 l 1
 587 802 l 1
 276 802 l 1
 275 777 274 760 274 752 c 0
 274 744 273 725 270 697 c 0
 267 669 263 646 258 628 c 0
 253 610 245 587 235 561 c 0
 225 535 212 510 197 487 c 2
 181 461 l 1
 130 494 l 1
 147 519 l 2
 162 542 173 565 183 590 c 0
 193 615 200 640 204 664 c 0
 208 688 210 710 212 727 c 0
 214 744 215 765 216 788 c 0
 217 811 216 826 217 834 c 0
 218 842 221 849 227 854 c 0
 233 859 239 862 247 862 c 2
 617 862 l 2
 624 862 631 860 637 854 c 0
 643 848 647 841 647 832 c 2
 647 473 l 1
147 519 m 1
 147 519 l 1
EndSplineSet
EndChar

StartChar: ky.cvc.1
Encoding: 53 -1 54
Width: 810
VWidth: 230
Flags: W
HStem: 464 21G<170.143 229.038> 851 20G<170.143 228.909>
DStem2: 178 871 156 815 0.930751 -0.365652<0 405.01> 156 520 178 464 0.931066 0.36485<0.0518367 404.645>
AnchorPoint: "Above" 405 230 basechar 0
LayerCount: 2
Back
SplineSet
194.844726562 832.208007812 m 1
 615.064453125 667.482421875 l 5
 194.844726562 502.756835938 l 1025
EndSplineSet
Fore
SplineSet
156 815 m 1
 178 871 l 1
 626 695 l 2
 634 692 640 686 644 675 c 0
 648 664 649 655 645 647 c 1
 178 464 l 1
 156 520 l 1
 533 667 l 1
 156 815 l 1
EndSplineSet
EndChar

StartChar: cy.cvc.1
Encoding: 54 -1 55
Width: 810
VWidth: 230
Flags: W
HStem: 464 21G<604 640.364> 474 49<175 242.787> 637 60<166 347 470 646> 842 20G<375 435>
VStem: 375 60<698.222 862>
DStem2: 600 542 540 502 0.924261 -0.38176<-129.021 59.3537>
AnchorPoint: "Above" 405 230 basechar 0
LayerCount: 2
Back
SplineSet
616.009765625 667.009765625 m 5
 196.009765625 667.009765625 l 1029
405.009765625 786.009765625 m 5
 405.009765625 832.009765625 l 1029
616.009765625 503.009765625 m 5
 536.009765625 537.009765625 409.009765625 567.009765625 405.009765625 786.009765625 c 5
 409.009765625 576.009765625 295.009765625 534.009765625 195.009765625 503.009765625 c 1029
EndSplineSet
Fore
SplineSet
435 786 m 2x78
 436 753 439 723 446 697 c 1
 646 697 l 1
 646 637 l 1
 470 637 l 1
 476 626 484 617 492 608 c 0
 500 599 508 592 515 586 c 0
 522 580 531 574 543 568 c 0
 555 562 564 557 570 554 c 0
 576 551 586 547 600 542 c 0
 614 537 623 533 628 531 c 2
 655 519 l 1
 632 464 l 1xb8
 604 475 l 2
 602 476 593 480 576 487 c 0
 559 494 547 499 540 502 c 0
 533 505 522 512 506 521 c 0
 490 530 477 538 468 547 c 0
 459 556 448 567 437 581 c 0
 426 595 416 610 408 626 c 1
 399 607 388 590 375 574 c 0
 362 558 350 546 338 536 c 0
 326 526 310 517 292 508 c 0
 274 499 259 493 248 489 c 0
 237 485 222 480 204 474 c 1
 175 474 l 1
 175 494 l 1
 157 523 l 1
 186 523 l 1
 223 535 256 549 283 566 c 0
 310 583 331 607 347 637 c 1
 166 637 l 1
 166 697 l 1
 368 697 l 1
 372 718 374 740 375 765 c 2
 375 862 l 1
 435 862 l 1
 435 786 l 2x78
EndSplineSet
EndChar

StartChar: yhy.cvc.1
Encoding: 55 -1 56
Width: 810
VWidth: 230
Flags: W
HStem: 473 21G<586 646> 842 20G<165 225>
VStem: 165 60<565 862> 586 60<473 770>
DStem2: 225 565 213 479 0.788582 0.61493<0 410.739>
AnchorPoint: "Above" 405 230 basechar 0
LayerCount: 2
Back
SplineSet
616.009765625 503.009765625 m 1
 616.009765625 832.009765625 l 1
 195.009765625 503.009765625 l 5
 195.009765625 832.009765625 l 1029
EndSplineSet
Fore
SplineSet
646 473 m 1
 586 473 l 1
 586 770 l 1
 213 479 l 2
 206 474 198 473 188 474 c 0
 178 475 170 479 165 486 c 1
 165 862 l 1
 225 862 l 1
 225 565 l 1
 611 866 l 1
 620 867 627 863 635 856 c 0
 643 849 646 841 646 832 c 2
 646 473 l 1
EndSplineSet
EndChar

StartChar: uy.cvc.1
Encoding: 56 -1 57
Width: 810
VWidth: 230
Flags: W
HStem: 473 60<165 586> 842 20G<586 646>
VStem: 586 60<533 862>
AnchorPoint: "Above" 405 230 basechar 0
LayerCount: 2
Back
SplineSet
616.1640625 832.208007812 m 25
 616.1640625 502.756835938 l 25
 194.844726562 502.756835938 l 1053
EndSplineSet
Fore
SplineSet
586 862 m 1
 646 862 l 1
 646 503 l 2
 646 494 642 487 636 481 c 0
 630 475 623 473 616 473 c 2
 165 473 l 1
 165 533 l 1
 586 533 l 1
 586 862 l 1
EndSplineSet
EndChar

StartChar: ly.cvc.1
Encoding: 57 -1 58
Width: 810
VWidth: 230
Flags: W
HStem: 473 60<225 646> 637 60<225 586> 802 60<165 586>
VStem: 165 60<533 637> 586 60<697 802>
CounterMasks: 1 e0
AnchorPoint: "Above" 405 230 basechar 0
LayerCount: 2
Back
SplineSet
194.844726562 832.208007812 m 25
 616.1640625 832.208007812 l 25
 616.1640625 667.482421875 l 25
 194.944335938 667.482421875 l 25
 194.844726562 502.756835938 l 25
 616.1640625 502.756835938 l 1049
EndSplineSet
Fore
SplineSet
165 802 m 1
 165 862 l 1
 616 862 l 2
 625 862 632 858 638 852 c 0
 644 846 646 839 646 832 c 2
 646 667 l 2
 646 658 642 652 636 646 c 0
 630 640 623 637 616 637 c 2
 225 637 l 1
 225 533 l 1
 646 533 l 1
 646 473 l 1
 195 473 l 2
 188 473 181 475 175 481 c 0
 169 487 165 494 165 503 c 2
 165 667 l 2
 165 675 168 682 174 688 c 0
 180 694 187 697 195 697 c 2
 586 697 l 1
 586 802 l 1
 165 802 l 1
EndSplineSet
EndChar

StartChar: dy.ccv.1
Encoding: 97 -1 59
Width: 810
VWidth: 230
Flags: W
HStem: 255 60<134 375> 529 60<134 375> 802 60<134 375>
VStem: 74 301<256.373 315 529 589 802 860.663> 74 60<315 529 589 802>
CounterMasks: 1 e0
AnchorPoint: "Above" 405 230 basechar 0
LayerCount: 2
Back
SplineSet
345.064453125 558.581054688 m 29
 104.405273438 558.581054688 l 1053
345.064453125 832.208007812 m 29
 104.405273438 832.208007812 l 29
 104.405273438 284.955078125 l 29
 345.064453125 284.955078125 l 1053
EndSplineSet
Fore
SplineSet
375 862 m 1xf0
 375 802 l 1xf0
 134 802 l 1
 134 589 l 1xe8
 375 589 l 1
 375 529 l 1xf0
 134 529 l 1
 134 315 l 1xe8
 375 315 l 1
 375 255 l 1
 104 255 l 2
 97 255 90 258 84 264 c 0
 78 270 74 276 74 285 c 2
 74 832 l 2
 74 839 77 846 83 852 c 0
 89 858 95 862 104 862 c 2
 375 862 l 1xf0
EndSplineSet
EndChar

StartChar: ty.ccv.1
Encoding: 98 -1 60
Width: 810
VWidth: 230
Flags: W
HStem: 255 60<74 315> 529 60<74 315> 802 60<74 315>
VStem: 74 301<256.337 315 529 589 802 860.965> 315 60<315 529 589 802>
CounterMasks: 1 e0
AnchorPoint: "Above" 405 230 basechar 0
LayerCount: 2
Back
SplineSet
104.405273438 558.581054688 m 29
 345.064453125 558.581054688 l 1053
104.405273438 284.955078125 m 29
 345.064453125 284.955078125 l 29
 345.064453125 832.208007812 l 29
 104.405273438 832.208007812 l 1053
EndSplineSet
Fore
SplineSet
74 255 m 1xf0
 74 315 l 1xf0
 315 315 l 1
 315 529 l 1xe8
 74 529 l 1
 74 589 l 1xf0
 315 589 l 1
 315 802 l 1xe8
 74 802 l 1
 74 862 l 1
 345 862 l 2
 352 862 359 860 365 854 c 0
 371 848 375 841 375 832 c 2
 375 285 l 2
 375 278 372 271 366 265 c 0
 360 259 354 255 345 255 c 2
 74 255 l 1xf0
EndSplineSet
EndChar

StartChar: zy.ccv.1
Encoding: 99 -1 61
Width: 810
VWidth: 230
Flags: W
HStem: 255 60<134 214.678> 542 60<134 242> 842 20G<74 134 328.143 386.909>
VStem: 74 60<315 542 602 862>
DStem2: 325 841 381 819 0.365652 0.930751<-222.897 30.0832>
AnchorPoint: "Above" 405 230 basechar 0
LayerCount: 2
Back
SplineSet
117.591796875 571.767578125 m 29
 256.053710938 571.767578125 l 1053
104.405273438 832.208007812 m 29
 104.405273438 284.955078125 l 29
 240.668945312 284.955078125 l 21
 253.806640625 470.453125 283.9765625 653.271484375 352.756835938 830.009765625 c 1037
EndSplineSet
Fore
SplineSet
74 862 m 1
 134 862 l 1
 134 602 l 1
 254 602 l 1
 272 686 296 766 325 841 c 2
 336 869 l 1
 392 847 l 1
 381 819 l 2
 322 668 286 489 271 283 c 0
 270 276 267 270 261 264 c 0
 255 258 249 255 241 255 c 2
 104 255 l 2
 97 255 90 258 84 264 c 0
 78 270 74 276 74 285 c 2
 74 862 l 1
134 542 m 1
 134 315 l 1
 213 315 l 1
 220 396 229 472 242 542 c 1
 134 542 l 1
EndSplineSet
EndChar

StartChar: sy.ccv.1
Encoding: 100 -1 62
Width: 810
VWidth: 230
Flags: W
HStem: 255 21G<63.0909 121.857 315 375> 515 60<208 315> 802 60<235.521 315>
VStem: 315 60<255 515 575 802>
DStem2: 58 270 114 248 0.365652 0.930751<0 252.68>
AnchorPoint: "Above" 405 230 basechar 0
LayerCount: 2
Back
SplineSet
332.009765625 545.009765625 m 5
 193.009765625 545.009765625 l 1029
345.009765625 285.009765625 m 5
 345.009765625 832.009765625 l 5
 209.009765625 832.009765625 l 5
 196.009765625 647.009765625 166.009765625 464.009765625 97.009765625 287.009765625 c 1029
EndSplineSet
Fore
SplineSet
375 255 m 1
 315 255 l 1
 315 515 l 1
 196 515 l 1
 178 431 154 351 125 276 c 2
 114 248 l 1
 58 270 l 1
 69 298 l 2
 128 449 164 627 179 834 c 0
 179 841 182 847 188 853 c 0
 194 859 201 862 209 862 c 2
 345 862 l 2
 352 862 360 860 366 854 c 0
 372 848 375 841 375 832 c 2
 375 255 l 1
315 575 m 1
 315 802 l 1
 237 802 l 1
 231 721 221 645 208 575 c 1
 315 575 l 1
EndSplineSet
EndChar

StartChar: gy.ccv.1
Encoding: 101 -1 63
Width: 810
VWidth: 230
Flags: W
HStem: 849 20G<324.131 364>
VStem: 74 312
DStem2: 82 578 144 558 0.66627 0.74571<26.3946 389.719> 144 558 82 538 0.661201 -0.750209<0 367.234>
AnchorPoint: "Above" 405 230 basechar 0
LayerCount: 2
Back
SplineSet
343.965820312 826.712890625 m 5
 104.009765625 558.009765625 l 5
 345.009765625 285.009765625 l 1029
EndSplineSet
Fore
SplineSet
342 869 m 1
 386 829 l 1
 144 558 l 1
 387 282 l 1
 342 243 l 1
 82 538 l 2
 77 543 74 549 74 557 c 0
 74 565 77 572 82 578 c 2
 342 869 l 1
EndSplineSet
EndChar

StartChar: jy.ccv.1
Encoding: 102 -1 64
Width: 810
VWidth: 230
Flags: W
HStem: 255 21G<194 254> 529 60<74 189 259 375>
VStem: 194 60<255 529>
DStem2: 101 875 62 829 0.754606 -0.656179<0.754606 130.529> 324 854 366 811 0.723356 0.690476<-112.326 30.3809>
AnchorPoint: "Above" 405 230 basechar 0
LayerCount: 2
Back
SplineSet
104.405273438 558.581054688 m 29
 345.064453125 558.581054688 l 1053
345.064453125 832.208007812 m 21
 276.931640625 765.541015625 236.637695312 673.965820312 224.185546875 557.482421875 c 1037
104.405273438 832.208007812 m 21
 180.307617188 766.627929688 208.415039062 669.8046875 224.185546875 557.482421875 c 13
 224.185546875 284.955078125 l 1053
EndSplineSet
Fore
SplineSet
62 829 m 1
 101 875 l 1
 124 855 l 2
 169 816 203 763 225 696 c 1
 247 758 280 811 324 854 c 2
 346 875 l 1
 387 832 l 1
 366 811 l 2
 310 756 274 682 259 589 c 1
 375 589 l 1
 375 529 l 1
 254 529 l 1
 254 255 l 1
 194 255 l 1
 194 529 l 1
 74 529 l 1
 74 589 l 1
 189 589 l 1
 171 692 136 765 85 809 c 2
 62 829 l 1
EndSplineSet
EndChar

StartChar: xy.ccv.1
Encoding: 103 -1 65
Width: 810
VWidth: 230
Flags: W
HStem: 842 20G<195 255>
VStem: 195 60<456.938 862>
DStem2: 62 285 104 243 0.707107 0.707107<0 164.819> 387 288 325 262 0.770962 -0.636881<-123.167 -1.40784>
AnchorPoint: "Above" 405 230 basechar 0
LayerCount: 2
Back
SplineSet
104.405273438 284.955078125 m 21
 172.538085938 351.622070312 212.83203125 443.197265625 225.284179688 559.680664062 c 1037
345.064453125 284.955078125 m 21
 269.162109375 350.53515625 241.0546875 447.358398438 225.284179688 559.680664062 c 13
 225.284179688 832.208007812 l 1053
EndSplineSet
Fore
SplineSet
387 288 m 1
 348 243 l 1
 325 262 l 2
 280 301 247 354 225 421 c 1
 203 359 169 307 125 264 c 2
 104 243 l 1
 62 285 l 1
 83 306 l 2
 158 379 195 464 195 561 c 2
 195 862 l 1
 255 862 l 1
 255 560 l 1
 263 501 276 451 293 410 c 0
 310 369 334 335 365 308 c 2
 387 288 l 1
255 556 m 1
 255 556 l 1
EndSplineSet
EndChar

StartChar: iy.ccv.1
Encoding: 104 -1 66
Width: 810
VWidth: 230
Flags: W
HStem: 255 60<134 375> 842 20G<74 134>
VStem: 74 60<315 862>
AnchorPoint: "Above" 405 230 basechar 0
LayerCount: 2
Back
SplineSet
104.405273438 832.208007812 m 29
 104.405273438 284.955078125 l 29
 345.064453125 284.955078125 l 1053
EndSplineSet
Fore
SplineSet
74 862 m 1
 134 862 l 1
 134 315 l 1
 375 315 l 1
 375 255 l 1
 104 255 l 2
 97 255 90 258 84 264 c 0
 78 270 74 276 74 285 c 2
 74 862 l 1
EndSplineSet
EndChar

StartChar: ry.ccv.1
Encoding: 105 -1 67
Width: 810
VWidth: 230
Flags: W
HStem: 245 21G<74.1667 128.703 320.213 374> 852 20G<74.1667 128.703 320.213 374>
VStem: 65 318
DStem2: 120 872 65 848 0.401058 -0.916053<0 260.647 397.138 657.858> 65 269 120 245 0.401058 0.916053<0.0729196 260.72 397.211 657.931>
AnchorPoint: "Above" 405 230 basechar 0
LayerCount: 2
Back
SplineSet
104.405273438 284.955078125 m 29
 343.965820312 832.208007812 l 1053
104.405273438 832.208007812 m 29
 343.965820312 284.955078125 l 1053
EndSplineSet
Fore
SplineSet
65 848 m 1
 120 872 l 1
 224 633 l 1
 329 872 l 1
 383 848 l 1
 257 559 l 1
 383 269 l 1
 329 245 l 1
 224 484 l 1
 120 245 l 1
 65 269 l 1
 191 559 l 1
 65 848 l 1
EndSplineSet
EndChar

StartChar: my.ccv.1
Encoding: 112 -1 68
Width: 810
VWidth: 230
Flags: W
HStem: 255 60<134 315> 802 60<134 315>
VStem: 74 60<315 802> 315 60<315 802>
AnchorPoint: "Above" 405 230 basechar 0
LayerCount: 2
Back
SplineSet
104.405273438 832.208007812 m 5
 345.064453125 832.208007812 l 5
 345.064453125 284.955078125 l 5
 104.405273438 284.955078125 l 5
 104.405273438 832.208007812 l 5
EndSplineSet
Fore
SplineSet
104 862 m 2
 345 862 l 2
 354 862 360 858 366 852 c 0
 372 846 375 839 375 832 c 2
 375 285 l 2
 375 276 371 270 365 264 c 0
 359 258 352 255 345 255 c 2
 104 255 l 2
 95 255 89 259 83 265 c 0
 77 271 74 278 74 285 c 2
 74 832 l 2
 74 841 78 848 84 854 c 0
 90 860 97 862 104 862 c 2
134 802 m 1
 134 315 l 1
 315 315 l 1
 315 802 l 1
 134 802 l 1
EndSplineSet
EndChar

StartChar: by.ccv.1
Encoding: 113 -1 69
Width: 810
VWidth: 230
Flags: W
HStem: 255 60<134 375> 802 60<134 375>
VStem: 74 60<315 802>
AnchorPoint: "Above" 405 230 basechar 0
LayerCount: 2
Back
SplineSet
345.064453125 832.208007812 m 29
 104.405273438 832.208007812 l 29
 104.405273438 284.955078125 l 29
 345.064453125 284.955078125 l 1053
EndSplineSet
Fore
SplineSet
375 862 m 1
 375 802 l 1
 134 802 l 1
 134 315 l 1
 375 315 l 1
 375 255 l 1
 104 255 l 2
 97 255 90 258 84 264 c 0
 78 270 74 276 74 285 c 2
 74 832 l 2
 74 839 77 846 83 852 c 0
 89 858 95 862 104 862 c 2
 375 862 l 1
EndSplineSet
EndChar

StartChar: py.ccv.1
Encoding: 114 -1 70
Width: 810
VWidth: 230
Flags: W
HStem: 255 60<74 315> 802 60<74 315>
VStem: 315 60<315 802>
AnchorPoint: "Above" 405 230 basechar 0
LayerCount: 2
Back
SplineSet
104.405273438 832.208007812 m 29
 345.064453125 832.208007812 l 29
 345.064453125 284.955078125 l 29
 104.405273438 284.955078125 l 1053
EndSplineSet
Fore
SplineSet
74 802 m 1
 74 862 l 1
 345 862 l 2
 354 862 360 858 366 852 c 0
 372 846 375 839 375 832 c 2
 375 285 l 2
 375 276 371 270 365 264 c 0
 359 258 352 255 345 255 c 2
 74 255 l 1
 74 315 l 1
 315 315 l 1
 315 802 l 1
 74 802 l 1
EndSplineSet
EndChar

StartChar: vy.ccv.1
Encoding: 115 -1 71
Width: 810
VWidth: 230
Flags: W
HStem: 255 60<134 214.562> 842 20G<74 134 328.143 386.909>
VStem: 74 60<315 862>
DStem2: 325 841 381 819 0.365652 0.930751<-220.708 30.0832>
AnchorPoint: "Above" 405 230 basechar 0
LayerCount: 2
Back
SplineSet
104.405273438 832.208007812 m 29
 104.405273438 284.955078125 l 29
 240.668945312 284.955078125 l 21
 253.806640625 470.453125 283.9765625 653.271484375 352.756835938 830.009765625 c 1037
EndSplineSet
Fore
SplineSet
74 862 m 1
 134 862 l 1
 134 315 l 1
 213 315 l 1
 229 515 266 691 325 841 c 2
 336 869 l 1
 392 847 l 1
 381 819 l 2
 322 668 286 489 271 283 c 0
 270 276 267 270 261 264 c 0
 255 258 249 255 241 255 c 2
 104 255 l 2
 97 255 90 258 84 264 c 0
 78 270 74 276 74 285 c 2
 74 862 l 1
EndSplineSet
EndChar

StartChar: fy.ccv.1
Encoding: 116 -1 72
Width: 810
VWidth: 230
Flags: W
HStem: 255 21G<63.0909 121.857 315 375> 802 60<235.438 315>
VStem: 315 60<255 802>
DStem2: 58 270 114 248 0.365652 0.930751<0 250.791>
LayerCount: 2
Back
SplineSet
345.009765625 285.009765625 m 5
 345.009765625 832.009765625 l 5
 209.009765625 832.009765625 l 5
 196.009765625 647.009765625 166.009765625 464.009765625 97.009765625 287.009765625 c 1029
EndSplineSet
Fore
SplineSet
375 255 m 1
 315 255 l 1
 315 802 l 1
 237 802 l 1
 221 602 184 426 125 276 c 2
 114 248 l 1
 58 270 l 1
 69 298 l 2
 128 449 164 627 179 834 c 0
 179 841 182 847 188 853 c 0
 194 859 201 862 209 862 c 2
 345 862 l 2
 352 862 360 860 366 854 c 0
 372 848 375 841 375 832 c 2
 375 255 l 1
EndSplineSet
EndChar

StartChar: ky.ccv.1
Encoding: 117 -1 73
Width: 810
VWidth: 230
Flags: W
VStem: 62 312
DStem2: 107 875 62 835 0.656179 -0.754606<0.656179 369.232> 62 282 107 243 0.661031 0.750359<0.482374 366.318>
AnchorPoint: "Above" 405 230 basechar 0
LayerCount: 2
Back
SplineSet
104.405273438 832.208007812 m 29
 343.965820312 556.383789062 l 29
 104.405273438 284.955078125 l 1053
EndSplineSet
Fore
SplineSet
62 835 m 1
 107 875 l 1
 367 576 l 2
 372 570 374 563 374 555 c 0
 374 547 370 542 366 537 c 2
 107 243 l 1
 62 282 l 1
 304 557 l 1
 62 835 l 1
EndSplineSet
EndChar

StartChar: cy.ccv.1
Encoding: 118 -1 74
Width: 810
VWidth: 230
Flags: W
HStem: 529 60<73 190 259 374> 842 20G<194 254>
VStem: 194 60<589 862>
DStem2: 61 285 103 243 0.707107 0.707107<0 151.19> 364 308 324 262 0.770962 -0.636881<-92.4699 28.2909>
AnchorPoint: "Above" 405 230 basechar 0
LayerCount: 2
Back
SplineSet
343.965820312 558.581054688 m 29
 103.306640625 558.581054688 l 1053
103.306640625 284.955078125 m 21
 171.440429688 351.622070312 211.732421875 443.196289062 224.185546875 559.6796875 c 1037
343.965820312 284.955078125 m 21
 268.063476562 350.533203125 239.956054688 447.358398438 224.185546875 559.6796875 c 13
 224.185546875 832.208007812 l 1053
EndSplineSet
Fore
SplineSet
386 288 m 1
 347 243 l 1
 324 262 l 2
 279 301 246 354 224 421 c 1
 202 359 168 307 124 264 c 2
 103 243 l 1
 61 285 l 1
 82 306 l 2
 138 361 175 436 190 529 c 1
 73 529 l 1
 73 589 l 1
 194 589 l 1
 194 862 l 1
 254 862 l 1
 254 589 l 1
 374 589 l 1
 374 529 l 1
 259 529 l 1
 277 426 313 352 364 308 c 2
 386 288 l 1
EndSplineSet
EndChar

StartChar: yhy.ccv.1
Encoding: 119 -1 75
Width: 810
VWidth: 230
Flags: W
HStem: 255 21G<315 375> 842 20G<74 134>
VStem: 74 60<261.237 273 427 862> 315 60<255 690 844 854.718>
DStem2: 134 427 131 273 0.403694 0.914894<0 313.686>
AnchorPoint: "Above" 405 230 basechar 0
LayerCount: 2
Back
SplineSet
104.009765625 832.009765625 m 29
 104.009765625 285.009765625 l 29
 345.009765625 832.009765625 l 29
 345.009765625 285.009765625 l 1053
EndSplineSet
Fore
SplineSet
74 862 m 1
 134 862 l 1
 134 427 l 1
 318 844 l 2
 322 853 329 859 338 861 c 0
 347 863 355 861 363 855 c 0
 371 849 375 842 375 832 c 2
 375 255 l 1
 315 255 l 1
 315 690 l 1
 131 273 l 2
 127 264 121 258 112 256 c 0
 103 254 94 256 86 261 c 0
 78 266 74 275 74 285 c 2
 74 862 l 1
EndSplineSet
EndChar

StartChar: uy.ccv.1
Encoding: 120 -1 76
Width: 810
VWidth: 230
Flags: W
HStem: 255 60<74 315> 842 20G<315 375>
VStem: 315 60<315 862>
AnchorPoint: "Above" 405 230 basechar 0
LayerCount: 2
Back
SplineSet
345.064453125 832.208007812 m 29
 345.064453125 284.955078125 l 29
 104.405273438 284.955078125 l 1053
EndSplineSet
Fore
SplineSet
315 862 m 1
 375 862 l 1
 375 285 l 2
 375 276 371 270 365 264 c 0
 359 258 352 255 345 255 c 2
 74 255 l 1
 74 315 l 1
 315 315 l 1
 315 862 l 1
EndSplineSet
EndChar

StartChar: ly.ccv.1
Encoding: 121 -1 77
Width: 810
VWidth: 230
Flags: W
HStem: 255 60<134 374> 529 60<134 314> 802 60<74 314>
VStem: 74 60<315 529> 314 60<589 802>
CounterMasks: 1 e0
AnchorPoint: "Above" 405 230 basechar 0
LayerCount: 2
Back
SplineSet
104.405273438 832.208007812 m 29
 343.965820312 832.208007812 l 29
 343.965820312 558.581054688 l 29
 104.405273438 558.581054688 l 29
 104.405273438 284.955078125 l 29
 343.965820312 284.955078125 l 1053
EndSplineSet
Fore
SplineSet
74 802 m 1
 74 862 l 1
 344 862 l 2
 353 862 359 858 365 852 c 0
 371 846 374 839 374 832 c 2
 374 559 l 2
 374 550 370 543 364 537 c 0
 358 531 351 529 344 529 c 2
 134 529 l 1
 134 315 l 1
 374 315 l 1
 374 255 l 1
 104 255 l 2
 97 255 90 258 84 264 c 0
 78 270 74 276 74 285 c 2
 74 559 l 2
 74 566 77 573 83 579 c 0
 89 585 95 589 104 589 c 2
 314 589 l 1
 314 802 l 1
 74 802 l 1
EndSplineSet
EndChar

StartChar: denpabu.cvc.1
Encoding: 63 -1 78
Width: 810
VWidth: 230
Flags: W
HStem: 445 60<296.389 514.449> 808 60<296.389 514.449>
VStem: 136 60<590.455 722.7> 615 60<590.455 722.7>
AnchorPoint: "Above" 405 230 basechar 0
LayerCount: 2
Back
SplineSet
165.943359375 656.383789062 m 0
 165.943359375 756.383789062 273.635742188 837.702148438 405.50390625 837.702148438 c 0
 537.372070312 837.702148438 645.064453125 756.383789062 645.064453125 656.383789062 c 0
 645.064453125 556.383789062 537.372070312 475.064453125 405.50390625 475.064453125 c 0
 273.635742188 475.064453125 165.943359375 556.383789062 165.943359375 656.383789062 c 0
EndSplineSet
Fore
SplineSet
136 656 m 0
 136 696 149 732 174 765 c 0
 199 798 232 823 273 841 c 0
 314 859 358 868 405 868 c 0
 452 868 497 859 538 841 c 0
 579 823 612 798 637 765 c 0
 662 732 675 696 675 656 c 0
 675 616 662 580 637 547 c 0
 612 514 579 490 538 472 c 0
 497 454 452 445 405 445 c 0
 358 445 314 454 273 472 c 0
 232 490 199 514 174 547 c 0
 149 580 136 616 136 656 c 0
196 656 m 0
 196 616 216 582 256 551 c 0
 296 520 346 505 405 505 c 0
 464 505 515 520 555 551 c 0
 595 582 615 616 615 656 c 0
 615 696 595 731 555 762 c 0
 515 793 464 808 405 808 c 0
 346 808 296 793 256 762 c 0
 216 731 196 696 196 656 c 0
EndSplineSet
EndChar

StartChar: ybu.cv
Encoding: 47 -1 79
Width: 0
VWidth: 230
Flags: W
HStem: 106 60<72 345 405 679>
VStem: 345 60<-46 106>
AnchorPoint: "Above" 375 230 mark 0
LayerCount: 2
Back
SplineSet
375.009765625 136.009765625 m 5
 375.009765625 -15.990234375 l 1029
649.009765625 136.009765625 m 5
 102.009765625 136.009765625 l 1029
EndSplineSet
Fore
SplineSet
679 166 m 1
 679 106 l 1
 405 106 l 1
 405 -46 l 1
 345 -46 l 1
 345 106 l 1
 72 106 l 1
 72 166 l 1
 679 166 l 1
EndSplineSet
Substitution2: "Single Substitution lookup 73 subtable" ybu.cvc
Substitution2: "Single Substitution lookup 69 subtable" ybu.ccv
EndChar

StartChar: eibu.cv
Encoding: 58 -1 80
Width: 0
VWidth: 230
Flags: W
HStem: -143 21G<72 132> 106 60<132 345 405 679>
VStem: 72 60<-143 106> 345 60<167 294>
AnchorPoint: "Above" 375 230 mark 0
LayerCount: 2
Back
SplineSet
375.009765625 264.009765625 m 5
 375.009765625 136.009765625 l 1029
649.009765625 136.009765625 m 5
 102.009765625 137.009765625 l 5
 102.009765625 -112.990234375 l 1029
EndSplineSet
Fore
SplineSet
679 166 m 1
 679 106 l 1
 132 106 l 1
 132 -143 l 1
 72 -143 l 1
 72 137 l 2
 72 144 74 152 80 158 c 0
 86 164 93 167 102 167 c 2
 345 167 l 1
 345 294 l 1
 405 294 l 1
 405 166 l 1
 679 166 l 1
EndSplineSet
Substitution2: "Single Substitution lookup 73 subtable" eibu.cvc
Substitution2: "Single Substitution lookup 69 subtable" eibu.ccv
EndChar

StartChar: oibu.cv
Encoding: 59 -1 81
Width: 0
VWidth: 230
Flags: W
HStem: -143 21G<619 679> 106 60<72 345 405 619>
VStem: 345 60<166 294> 619 60<-143 106>
AnchorPoint: "Above" 375 230 mark 0
LayerCount: 2
Back
SplineSet
102.009765625 136.009765625 m 1053,1,-1
375.009765625 264.009765625 m 5,3,-1
 375.009765625 136.009765625 l 1053
102.009765625 136.009765625 m 5,5,-1
 649.009765625 136.009765625 l 5,6,-1
 649.009765625 -112.990234375 l 1053
EndSplineSet
Fore
SplineSet
345 294 m 1
 405 294 l 1
 405 166 l 1
 649 166 l 2
 658 166 664 162 670 156 c 0
 676 150 679 143 679 136 c 2
 679 -143 l 1
 619 -143 l 1
 619 106 l 1
 72 106 l 1
 72 166 l 1
 345 166 l 1
 345 294 l 1
EndSplineSet
Substitution2: "Single Substitution lookup 73 subtable" oibu.cvc
Substitution2: "Single Substitution lookup 69 subtable" oibu.ccv
EndChar

StartChar: aibu.cv
Encoding: 60 -1 82
Width: 0
VWidth: 230
Flags: W
HStem: 106 60<72 345 405 679>
VStem: 345 60<166 293>
AnchorPoint: "Above" 375 230 mark 0
LayerCount: 2
Back
SplineSet
375.009765625 263.009765625 m 1
 375.009765625 136.009765625 l 1049
102.009765625 136.009765625 m 13
 649.009765625 136.009765625 l 1049
EndSplineSet
Fore
SplineSet
72 106 m 1
 72 166 l 1
 345 166 l 1
 345 293 l 1
 405 293 l 1
 405 166 l 1
 679 166 l 1
 679 106 l 1
 72 106 l 1
EndSplineSet
Substitution2: "Single Substitution lookup 73 subtable" aibu.cvc
Substitution2: "Single Substitution lookup 69 subtable" aibu.ccv
EndChar

StartChar: aubu.cv
Encoding: 61 -1 83
Width: 0
VWidth: 230
Flags: W
HStem: -143 21G<72 132 619 679> 107 59<132 619>
VStem: 72 60<-143 107> 619 60<-143 107>
AnchorPoint: "Above" 375 230 mark 0
LayerCount: 2
Back
SplineSet
649.009765625 -112.84765625 m 25
 649.009765625 136.603515625 l 1
 102.009765625 136.009765625 l 9
 102.009765625 -112.990234375 l 1025
EndSplineSet
Fore
SplineSet
679 -143 m 1
 619 -143 l 1
 619 107 l 1
 132 107 l 1
 132 -143 l 1
 72 -143 l 1
 72 136 l 2
 72 144 75 151 81 157 c 0
 87 163 94 166 102 166 c 2
 649 166 l 2
 656 166 664 163 670 158 c 0
 676 153 679 146 679 137 c 2
 679 -143 l 1
EndSplineSet
Substitution2: "Single Substitution lookup 73 subtable" aubu.cvc
Substitution2: "Single Substitution lookup 69 subtable" aubu.ccv
EndChar

StartChar: ubu.cv
Encoding: 45 -1 84
Width: 0
VWidth: 230
Flags: W
HStem: -143 21G<619 679> 106 60<72 345 405 619>
VStem: 345 60<-46 106> 619 60<-143 106>
AnchorPoint: "Above" 375 230 mark 0
LayerCount: 2
Back
SplineSet
375.009765625 136.009765625 m 25
 375.009765625 -15.990234375 l 1025
102.009765625 136.009765625 m 1
 649.009765625 136.009765625 l 1
 649.009765625 -112.990234375 l 1049
EndSplineSet
Fore
SplineSet
72 106 m 1
 72 166 l 1
 649 166 l 2
 658 166 664 162 670 156 c 0
 676 150 679 143 679 136 c 2
 679 -143 l 1
 619 -143 l 1
 619 106 l 1
 405 106 l 1
 405 -46 l 1
 345 -46 l 1
 345 106 l 1
 72 106 l 1
EndSplineSet
Substitution2: "Single Substitution lookup 73 subtable" ubu.cvc
Substitution2: "Single Substitution lookup 69 subtable" ubu.ccv
EndChar

StartChar: abu.cv
Encoding: 46 -1 85
Width: 0
VWidth: 230
Flags: W
HStem: 106 60<72 679>
AnchorPoint: "Above" 375 230 mark 0
LayerCount: 2
Back
SplineSet
102.009765625 136.009765625 m 1
 649.009765625 136.009765625 l 1029
EndSplineSet
Fore
SplineSet
72 106 m 1
 72 166 l 1
 679 166 l 1
 679 106 l 1
 72 106 l 1
EndSplineSet
Substitution2: "Single Substitution lookup 73 subtable" abu.cvc
Substitution2: "Single Substitution lookup 69 subtable" abu.ccv
EndChar

StartChar: eibu.ccv
Encoding: 122 -1 104
Width: 0
VWidth: 230
Flags: W
HStem: -143 21G<74 134> 106 60<134 375 435 738>
VStem: 74 60<-143 106> 375 60<166 267>
AnchorPoint: "Above" 405 230 mark 0
LayerCount: 2
Back
SplineSet
405.009765625 237.009765625 m 5
 405.009765625 136.009765625 l 1029
104.009765625 -112.990234375 m 29
 104.009765625 136.009765625 l 29
 708.009765625 136.009765625 l 1053
EndSplineSet
Fore
SplineSet
134 -143 m 1
 74 -143 l 1
 74 136 l 2
 74 145 78 152 84 158 c 0
 90 164 97 166 104 166 c 2
 375 166 l 1
 375 267 l 1
 435 267 l 1
 435 166 l 1
 738 166 l 1
 738 106 l 1
 134 106 l 1
 134 -143 l 1
EndSplineSet
EndChar

StartChar: obu.ccv
Encoding: 107 -1 105
Width: 0
VWidth: 230
Flags: W
HStem: -143 21G<678 738> 106 60<74 375 435 678>
VStem: 375 60<-46 106> 678 60<-143 106>
AnchorPoint: "Above" 405 230 mark 0
LayerCount: 2
Back
SplineSet
405.009765625 136.009765625 m 25
 405.009765625 -15.990234375 l 1025
708.009765625 -112.990234375 m 25
 708.009765625 136.009765625 l 1
 104.009765625 136.009765625 l 1025
EndSplineSet
Fore
SplineSet
738 -143 m 1
 678 -143 l 1
 678 106 l 1
 435 106 l 1
 435 -46 l 1
 375 -46 l 1
 375 106 l 1
 74 106 l 1
 74 166 l 1
 708 166 l 2
 715 166 722 164 728 158 c 0
 734 152 738 145 738 136 c 2
 738 -143 l 1
EndSplineSet
EndChar

StartChar: oibu.ccv
Encoding: 123 -1 106
Width: 0
VWidth: 230
Flags: W
HStem: -143 21G<678 738> 106 60<74 375 435 678>
VStem: 375 60<166 267> 678 60<-143 106>
AnchorPoint: "Above" 406 230 mark 0
LayerCount: 2
Back
SplineSet
405.009765625 237.009765625 m 5
 405.009765625 136.009765625 l 1029
104.009765625 136.009765625 m 29
 708.009765625 136.009765625 l 29
 708.009765625 -112.990234375 l 1053
EndSplineSet
Fore
SplineSet
74 106 m 1
 74 166 l 1
 375 166 l 1
 375 267 l 1
 435 267 l 1
 435 166 l 1
 708 166 l 2
 717 166 724 162 730 156 c 0
 736 150 738 143 738 136 c 2
 738 -143 l 1
 678 -143 l 1
 678 106 l 1
 74 106 l 1
EndSplineSet
EndChar

StartChar: ybu.ccv
Encoding: 111 -1 107
Width: 0
VWidth: 230
Flags: W
HStem: 106 60<74 375 435 738>
VStem: 375 60<-46 106>
AnchorPoint: "Above" 405 230 mark 0
LayerCount: 2
Back
SplineSet
405.009765625 136.009765625 m 29
 405.009765625 -15.990234375 l 1029
104.009765625 136.009765625 m 29
 708.009765625 136.009765625 l 1053
EndSplineSet
Fore
SplineSet
74 106 m 1
 74 166 l 1
 738 166 l 1
 738 106 l 1
 435 106 l 1
 435 -46 l 1
 375 -46 l 1
 375 106 l 1
 74 106 l 1
EndSplineSet
EndChar

StartChar: ebu.cvc
Encoding: 74 -1 108
Width: 0
VWidth: 230
Flags: W
HStem: 330 60<85 786>
VStem: 25 60<32 330>
AnchorPoint: "Above" 405 230 mark 0
LayerCount: 2
Back
SplineSet
756.009765625 360.009765625 m 5
 54.955078125 359.6796875 l 5
 55.009765625 62.009765625 l 1029
EndSplineSet
Fore
SplineSet
786 360 m 1
 786 330 l 1
 85 330 l 1
 85 32 l 1
 25 32 l 1
 25 360 l 2
 25 368 28 374 34 380 c 0
 40 386 47 390 55 390 c 2
 786 390 l 1
 786 360 l 1
EndSplineSet
EndChar

StartChar: obu.cvc
Encoding: 75 -1 109
Width: 0
VWidth: 230
Flags: W
HStem: 330 60<25 726>
VStem: 726 59<32 330>
AnchorPoint: "Above" 405 229 mark 0
LayerCount: 2
Back
SplineSet
55.009765625 360.009765625 m 29
 755.009765625 360.009765625 l 5
 756.009765625 62.009765625 l 1053
EndSplineSet
Fore
SplineSet
25 330 m 1
 25 390 l 1
 755 390 l 2
 763 390 770 387 776 381 c 0
 782 375 785 368 785 360 c 2
 785 32 l 1
 726 32 l 1
 726 330 l 1
 25 330 l 1
EndSplineSet
EndChar

StartChar: ibu.cvc
Encoding: 76 -1 110
Width: 0
VWidth: 230
Flags: W
HStem: 330 60<84 375 435 788>
VStem: 25 59<32 330> 375 60<207 330>
AnchorPoint: "Above" 405 230 mark 0
LayerCount: 2
Back
SplineSet
405.009765625 237.009765625 m 29
 405.009765625 360.009765625 l 1053
758.009765625 360.009765625 m 29
 54.009765625 360.009765625 l 29
 55.009765625 62.009765625 l 1053
EndSplineSet
Fore
SplineSet
788 390 m 1
 788 330 l 1
 435 330 l 1
 435 207 l 1
 375 207 l 1
 375 330 l 1
 84 330 l 1
 84 32 l 1
 25 32 l 1
 25 360 l 2
 25 367 28 374 33 380 c 0
 38 386 46 390 54 390 c 2
 788 390 l 1
EndSplineSet
EndChar

StartChar: ubu.cvc
Encoding: 77 -1 111
Width: 0
VWidth: 230
Flags: W
HStem: 330 60<26 375 435 726>
VStem: 375 60<207 330> 726 61<32 330>
AnchorPoint: "Above" 405 230 mark 0
LayerCount: 2
Back
SplineSet
405.009765625 237.009765625 m 29
 405.009765625 360.009765625 l 1053
56.009765625 360.009765625 m 29
 757.009765625 360.009765625 l 29
 756.009765625 62.009765625 l 1053
EndSplineSet
Fore
SplineSet
26 330 m 1
 26 390 l 1
 757 390 l 2
 766 390 772 386 778 380 c 0
 784 374 787 367 787 360 c 2
 787 32 l 1
 726 32 l 1
 726 330 l 1
 435 330 l 1
 435 207 l 1
 375 207 l 1
 375 330 l 1
 26 330 l 1
EndSplineSet
EndChar

StartChar: abu.cvc
Encoding: 78 -1 112
Width: 0
VWidth: 230
Flags: W
HStem: 330 60<25 785>
AnchorPoint: "Above" 405 230 mark 0
LayerCount: 2
Back
SplineSet
55.009765625 360.009765625 m 29
 755.009765625 360.009765625 l 1053
EndSplineSet
Fore
SplineSet
25 330 m 1
 25 390 l 1
 785 390 l 1
 785 330 l 1
 25 330 l 1
EndSplineSet
EndChar

StartChar: ybu.cvc
Encoding: 79 -1 113
Width: 0
VWidth: 230
Flags: W
HStem: 330 60<26 375 435 787>
VStem: 375 60<207 330>
AnchorPoint: "Above" 405 230 mark 0
LayerCount: 2
Back
SplineSet
405.009765625 360.009765625 m 29
 405.009765625 237.009765625 l 1029
56.009765625 360.009765625 m 29
 757.009765625 360.009765625 l 1053
EndSplineSet
Fore
SplineSet
26 330 m 1
 26 390 l 1
 787 390 l 1
 787 330 l 1
 435 330 l 1
 435 207 l 1
 375 207 l 1
 375 330 l 1
 26 330 l 1
EndSplineSet
EndChar

StartChar: eibu.cvc
Encoding: 90 -1 114
Width: 0
VWidth: 230
Flags: W
HStem: 330 60<85 375 435 785>
VStem: 25 60<32 330> 375 60<390 513>
AnchorPoint: "Above" 405 230 mark 0
LayerCount: 2
Back
SplineSet
405.009765625 360.009765625 m 5
 405.009765625 483.009765625 l 1029
55.009765625 62.009765625 m 29
 55.009765625 360.009765625 l 29
 755.009765625 360.009765625 l 1053
EndSplineSet
Fore
SplineSet
85 32 m 1
 25 32 l 1
 25 360 l 2
 25 369 28 376 34 382 c 0
 40 388 48 390 55 390 c 2
 375 390 l 1
 375 513 l 1
 435 513 l 1
 435 390 l 1
 785 390 l 1
 785 330 l 1
 85 330 l 1
 85 32 l 1
EndSplineSet
EndChar

StartChar: oibu.cvc
Encoding: 91 -1 115
Width: 0
VWidth: 230
Flags: W
HStem: 330 60<25 375 435 726>
VStem: 375 60<390 513> 726 60<32 330>
AnchorPoint: "Above" 405 230 mark 0
LayerCount: 2
Back
SplineSet
405.009765625 360.009765625 m 5
 405.009765625 483.009765625 l 1029
756.009765625 62.009765625 m 29
 756.009765625 360.009765625 l 5
 55.009765625 360.009765625 l 1053
EndSplineSet
Fore
SplineSet
786 32 m 1
 726 32 l 1
 726 330 l 1
 25 330 l 1
 25 390 l 1
 375 390 l 1
 375 513 l 1
 435 513 l 1
 435 390 l 1
 756 390 l 2
 763 390 770 388 776 382 c 0
 782 376 786 369 786 360 c 2
 786 32 l 1
EndSplineSet
EndChar

StartChar: aibu.cvc
Encoding: 92 -1 116
Width: 0
VWidth: 230
Flags: W
HStem: 330 60<25 375 435 787>
VStem: 375 60<390 513>
AnchorPoint: "Above" 405 230 mark 0
LayerCount: 2
Back
SplineSet
405.009765625 483.009765625 m 5
 405.009765625 360.009765625 l 1053
55.009765625 360.009765625 m 29
 757.009765625 360.009765625 l 1053
EndSplineSet
Fore
SplineSet
25 330 m 1
 25 390 l 1
 375 390 l 1
 375 513 l 1
 435 513 l 1
 435 390 l 1
 787 390 l 1
 787 330 l 1
 25 330 l 1
EndSplineSet
EndChar

StartChar: aubu.cvc
Encoding: 93 -1 117
Width: 0
VWidth: 230
Flags: W
HStem: 330 60<85 726>
VStem: 25 60<32 330> 726 59<32 330>
AnchorPoint: "Above" 405 230 mark 0
LayerCount: 2
Back
SplineSet
756.009765625 62.009765625 m 25
 755.009765625 360.009765625 l 25
 55.009765625 360.009765625 l 25
 55.009765625 62.009765625 l 1049
EndSplineSet
Fore
SplineSet
756 32 m 1
 726 32 l 1
 726 330 l 1
 85 330 l 1
 85 32 l 1
 25 32 l 1
 25 360 l 2
 25 367 28 374 34 380 c 0
 40 386 46 390 55 390 c 2
 755 390 l 2
 763 390 770 387 776 381 c 0
 782 375 785 368 785 360 c 2
 785 32 l 1
 756 32 l 1
EndSplineSet
EndChar

StartChar: ibu.ccv
Encoding: 108 -1 119
Width: 0
VWidth: 230
Flags: W
HStem: -143 21G<74 134> 106 60<134 738>
VStem: 74 60<-143 106>
AnchorPoint: "Above" 405 230 mark 0
LayerCount: 2
Back
SplineSet
708.009765625 136.009765625 m 29
 104.009765625 136.009765625 l 29
 104.009765625 -112.990234375 l 1053
EndSplineSet
Fore
SplineSet
738 166 m 1
 738 106 l 1
 134 106 l 1
 134 -143 l 1
 74 -143 l 1
 74 136 l 2
 74 143 76 150 82 156 c 0
 88 162 95 166 104 166 c 2
 738 166 l 1
EndSplineSet
EndChar

StartChar: ubu.ccv
Encoding: 109 -1 120
Width: 0
VWidth: 230
Flags: W
HStem: -143 21G<678 738> 106 60<74 678>
VStem: 678 60<-143 106>
AnchorPoint: "Above" 405 230 mark 0
LayerCount: 2
Back
SplineSet
104.009765625 136.009765625 m 29
 708.009765625 136.009765625 l 29
 708.009765625 -112.990234375 l 1053
EndSplineSet
Fore
SplineSet
74 106 m 1
 74 166 l 1
 708 166 l 2
 717 166 724 162 730 156 c 0
 736 150 738 143 738 136 c 2
 738 -143 l 1
 678 -143 l 1
 678 106 l 1
 74 106 l 1
EndSplineSet
EndChar

StartChar: abu.ccv
Encoding: 110 -1 121
Width: 0
VWidth: 230
Flags: W
HStem: 106 60<74 738>
AnchorPoint: "Above" 405 230 mark 0
LayerCount: 2
Back
SplineSet
104.009765625 136.009765625 m 29
 708.009765625 136.009765625 l 1053
EndSplineSet
Fore
SplineSet
74 106 m 1
 74 166 l 1
 738 166 l 1
 738 106 l 1
 74 106 l 1
EndSplineSet
EndChar

StartChar: aibu.ccv
Encoding: 124 -1 122
Width: 0
VWidth: 230
Flags: W
HStem: 106 60<74 375 435 738>
VStem: 375 60<166 267>
AnchorPoint: "Above" 405 230 mark 0
LayerCount: 2
Back
SplineSet
405.009765625 237.009765625 m 29
 405.009765625 135.009765625 l 1053
708.009765625 136.009765625 m 29
 104.009765625 136.009765625 l 1053
EndSplineSet
Fore
SplineSet
738 166 m 1
 738 106 l 1
 74 106 l 1
 74 166 l 1
 375 166 l 1
 375 267 l 1
 435 267 l 1
 435 166 l 1
 738 166 l 1
EndSplineSet
EndChar

StartChar: aubu.ccv
Encoding: 125 -1 123
Width: 0
VWidth: 230
Flags: W
HStem: -143 21G<74 134 678 738> 106 60<134 678>
VStem: 74 60<-143 106> 678 60<-143 106>
AnchorPoint: "Above" 405 230 mark 0
LayerCount: 2
Back
SplineSet
708.009765625 -112.990234375 m 29
 708.009765625 136.009765625 l 29
 104.009765625 136.009765625 l 29
 104.009765625 -112.990234375 l 1053
EndSplineSet
Fore
SplineSet
738 -143 m 1
 678 -143 l 1
 678 106 l 1
 134 106 l 1
 134 -143 l 1
 74 -143 l 1
 74 136 l 2
 74 143 76 150 82 156 c 0
 88 162 95 166 104 166 c 2
 708 166 l 2
 715 166 722 164 728 158 c 0
 734 152 738 145 738 136 c 2
 738 -143 l 1
EndSplineSet
EndChar

StartChar: denpabu.ccv.1
Encoding: 127 -1 143
Width: 810
VWidth: 230
Flags: W
HStem: 255 60<193.719 254.281> 801 60<193.719 254.281>
VStem: 74 60<408.314 707.686> 314 60<408.314 707.686>
AnchorPoint: "Above" 405 230 basechar 0
LayerCount: 2
Back
SplineSet
104.009765625 558.009765625 m 4
 104.009765625 709.009765625 158.009765625 831.009765625 224.009765625 831.009765625 c 4
 290.009765625 831.009765625 344.009765625 709.009765625 344.009765625 558.009765625 c 4
 344.009765625 407.009765625 290.009765625 285.009765625 224.009765625 285.009765625 c 4
 158.009765625 285.009765625 104.009765625 407.009765625 104.009765625 558.009765625 c 4
EndSplineSet
Fore
SplineSet
74 558 m 0
 74 639 88 710 114 770 c 0
 140 830 177 861 224 861 c 0
 271 861 308 830 334 770 c 0
 360 710 374 639 374 558 c 0
 374 477 360 406 334 346 c 0
 308 286 271 255 224 255 c 0
 177 255 140 286 114 346 c 0
 88 406 74 477 74 558 c 0
134 558 m 0
 134 521 138 487 144 455 c 0
 150 423 158 397 168 378 c 0
 178 359 187 343 197 332 c 0
 207 321 216 315 224 315 c 0
 232 315 241 321 251 332 c 0
 261 343 270 359 280 378 c 0
 290 397 298 423 304 455 c 0
 310 487 314 521 314 558 c 0
 314 595 310 629 304 661 c 0
 298 693 290 719 280 738 c 0
 270 757 261 773 251 784 c 0
 241 795 232 801 224 801 c 0
 216 801 207 795 197 784 c 0
 187 773 178 757 168 738 c 0
 158 719 150 693 144 661 c 0
 138 629 134 595 134 558 c 0
EndSplineSet
EndChar

StartChar: guillemotleft
Encoding: 160 171 145
Width: 800
VWidth: 230
Flags: W
DStem2: 272 360 202 339 0.785269 -0.619155<0 222.865> 205 384 272 360 0.786451 0.617652<37.8686 260.665> 453 360 383 339 0.785269 -0.619155<0 222.865> 386 384 453 360 0.786451 0.617652<37.8686 260.665>
LayerCount: 2
Back
SplineSet
586.009765625 503.009765625 m 5
 405.009765625 360.009765625 l 5
 586.009765625 217.009765625 l 1029
405.009765625 503.009765625 m 5
 224.009765625 360.009765625 l 5
 405.009765625 217.009765625 l 1029
EndSplineSet
Fore
SplineSet
410 545 m 1
 447 498 l 1
 272 360 l 1
 447 222 l 1
 410 175 l 1
 202 339 l 2
 196 345 193 353 194 362 c 0
 195 371 198 379 205 384 c 2
 410 545 l 1
591 545 m 1
 628 498 l 1
 453 360 l 1
 628 222 l 1
 591 175 l 1
 383 339 l 2
 377 345 374 353 375 362 c 0
 376 371 379 379 386 384 c 2
 591 545 l 1
EndSplineSet
EndChar

StartChar: parenleft
Encoding: 162 40 148
Width: 500
VWidth: 230
Flags: W
HStem: 853 20G<361 398.8>
VStem: 74 60<223.744 494.751>
DStem2: 393 -88 344 -127 0.841178 -0.540758<-145.352 29.6816> 361 857 393 807 0.841178 0.540758<-146.012 29.5614>
LayerCount: 2
Back
SplineSet
377.009765625 832.009765625 m 25
 377.009765625 832.009765625 104.012695312 658.01953125 104.009765625 359.009765625 c 0
 104.006835938 61.0185546875 377.009765625 -112.990234375 377.009765625 -112.990234375 c 1049
EndSplineSet
Fore
SplineSet
386 873 m 1
 418 823 l 1
 393 807 l 2
 389 805 384 801 377 796 c 0
 370 791 359 781 341 766 c 0
 323 751 306 734 289 717 c 0
 272 700 255 678 235 651 c 0
 215 624 198 597 184 569 c 0
 170 541 159 508 149 471 c 0
 139 434 134 397 134 359 c 0
 134 321 139 284 149 247 c 0
 159 210 171 177 185 149 c 0
 199 121 216 94 236 67 c 0
 256 40 273 18 290 1 c 0
 307 -16 323 -32 341 -47 c 0
 359 -62 371 -72 378 -77 c 0
 385 -82 389 -86 393 -88 c 2
 418 -104 l 1
 386 -154 l 1
 362 -139 l 2
 357 -136 351 -132 344 -127 c 0
 337 -122 324 -112 304 -95 c 0
 284 -78 265 -60 247 -42 c 0
 229 -24 209 0 187 30 c 0
 165 60 146 91 130 122 c 0
 114 153 101 190 90 232 c 0
 79 274 74 316 74 359 c 0
 74 402 79 445 90 487 c 0
 101 529 114 565 130 596 c 0
 146 627 165 658 187 688 c 0
 209 718 229 742 247 760 c 0
 265 778 284 797 304 814 c 0
 324 831 337 841 344 846 c 0
 351 851 356 854 361 857 c 2
 386 873 l 1
EndSplineSet
EndChar

StartChar: denpabu_iy
Encoding: 174 -1 149
Width: 810
VWidth: 2427
Flags: W
HStem: 256 59<162 710> 456 60<394.184 541.816> 800 60<394.184 541.816>
VStem: 102 60<315 858> 270 60<581.382 734.618> 606 60<581.382 734.618>
AnchorPoint: "Above" 405 230 basechar 0
LayerCount: 2
Back
SplineSet
131.877929688 827.811523438 m 5
 131.877929688 284.955078125 l 5
 680.229492188 285.50390625 l 1029
300.009765625 658.009765625 m 0
 300.009765625 753.009765625 375.009765625 830.009765625 468.009765625 830.009765625 c 0
 561.009765625 830.009765625 636.009765625 753.009765625 636.009765625 658.009765625 c 0
 636.009765625 563.009765625 561.009765625 486.009765625 468.009765625 486.009765625 c 0
 375.009765625 486.009765625 300.009765625 563.009765625 300.009765625 658.009765625 c 0
EndSplineSet
Fore
SplineSet
102 858 m 1
 162 858 l 1
 162 315 l 1
 710 315 l 1
 710 256 l 1
 132 256 l 2
 125 256 118 258 112 264 c 0
 106 270 102 277 102 285 c 2
 102 858 l 1
330 658 m 0
 330 619 343 586 370 558 c 0
 397 530 430 516 468 516 c 0
 506 516 539 530 566 558 c 0
 593 586 606 619 606 658 c 0
 606 697 593 730 566 758 c 0
 539 786 506 800 468 800 c 0
 430 800 397 786 370 758 c 0
 343 730 330 697 330 658 c 0
270 658 m 0
 270 713 289 760 328 800 c 0
 367 840 413 860 468 860 c 0
 523 860 569 840 608 800 c 0
 647 760 666 713 666 658 c 0
 666 603 647 556 608 516 c 0
 569 476 523 456 468 456 c 0
 413 456 367 476 328 516 c 0
 289 556 270 603 270 658 c 0
EndSplineSet
Ligature2: "Vdenpabu subtable" denpabu iy
LCarets2: 1 0
EndChar

StartChar: denpabu_uy
Encoding: 175 -1 150
Width: 810
VWidth: 2427
Flags: W
HStem: 255 60<102 652> 455 60<268.889 417.111> 799 60<268.889 417.111>
VStem: 145 60<581.573 732.427> 481 60<581.573 732.427> 652 60<315 864>
AnchorPoint: "Above" 405 230 basechar 0
LayerCount: 2
Back
SplineSet
131.877929688 285.50390625 m 1
 682.427734375 285.50390625 l 1
 682.427734375 834.405273438 l 1025
175.009765625 657.009765625 m 0
 175.009765625 752.009765625 250.009765625 829.009765625 343.009765625 829.009765625 c 0
 436.009765625 829.009765625 511.009765625 752.009765625 511.009765625 657.009765625 c 0
 511.009765625 562.009765625 436.009765625 485.009765625 343.009765625 485.009765625 c 0
 250.009765625 485.009765625 175.009765625 562.009765625 175.009765625 657.009765625 c 0
EndSplineSet
Fore
SplineSet
102 255 m 1
 102 315 l 1
 652 315 l 1
 652 864 l 1
 712 864 l 1
 712 285 l 2
 712 278 710 271 704 265 c 0
 698 259 691 255 682 255 c 2
 102 255 l 1
205 657 m 0
 205 618 219 584 246 556 c 0
 273 528 305 515 343 515 c 0
 381 515 413 528 440 556 c 0
 467 584 481 618 481 657 c 0
 481 696 467 730 440 758 c 0
 413 786 381 799 343 799 c 0
 305 799 273 786 246 758 c 0
 219 730 205 696 205 657 c 0
145 657 m 0
 145 712 164 760 203 800 c 0
 242 840 288 859 343 859 c 0
 398 859 444 840 483 800 c 0
 522 760 541 712 541 657 c 0
 541 602 522 554 483 514 c 0
 444 474 398 455 343 455 c 0
 288 455 242 474 203 514 c 0
 164 554 145 602 145 657 c 0
EndSplineSet
Ligature2: "Vdenpabu subtable" denpabu uy
LCarets2: 1 0
EndChar

StartChar: colon
Encoding: 164 58 151
Width: 326
VWidth: 230
Flags: W
HStem: 91 82<129.376 186.624> 546 82<129.376 186.624>
VStem: 117 82<103.376 160.624 558.376 615.624>
LayerCount: 2
Fore
SplineSet
117 132 m 0
 117 143 121 153 129 161 c 0
 137 169 147 173 158 173 c 0
 169 173 179 169 187 161 c 0
 195 153 199 143 199 132 c 0
 199 121 195 111 187 103 c 0
 179 95 169 91 158 91 c 0
 147 91 137 95 129 103 c 0
 121 111 117 121 117 132 c 0
117 587 m 0
 117 598 121 608 129 616 c 0
 137 624 147 628 158 628 c 0
 169 628 179 624 187 616 c 0
 195 608 199 598 199 587 c 0
 199 576 195 566 187 558 c 0
 179 550 169 546 158 546 c 0
 147 546 137 550 129 558 c 0
 121 566 117 576 117 587 c 0
EndSplineSet
EndChar

StartChar: question
Encoding: 165 63 152
Width: 698
VWidth: 230
Flags: W
HStem: 60 82<318.376 375.624> 697 60<223.176 472.675>
VStem: 89 60<472.287 629.668> 306 82<72.3765 129.624> 319 60<206 325.58> 549 60<503.129 628.699>
DStem2: 223 425 202 369 0.930751 -0.365652<-61.8005 29.7176> 410 435 544 423 0.87403 0.485872<-71.097 166.978>
LayerCount: 2
Fore
SplineSet
306 101 m 0xf4
 306 112 310 122 318 130 c 0
 326 138 336 142 347 142 c 0
 358 142 368 138 376 130 c 0
 384 122 388 112 388 101 c 0
 388 90 384 80 376 72 c 0
 368 64 358 60 347 60 c 0
 336 60 326 64 318 72 c 0
 310 80 306 90 306 101 c 0xf4
251 415 m 1
 230 358 l 1
 202 369 l 2
 198 370 193 372 187 375 c 0
 181 378 173 385 160 395 c 0
 147 405 137 417 127 430 c 0
 117 443 109 461 101 484 c 0
 93 507 89 532 89 559 c 0
 89 614 110 662 154 700 c 0
 198 738 263 757 349 757 c 0
 434 757 499 738 543 699 c 0
 587 660 609 614 609 559 c 0
 609 497 587 452 544 423 c 0
 539 420 516 407 473 386 c 0
 432 366 406 341 393 311 c 0
 384 290 379 265 379 236 c 2
 379 206 l 1
 319 206 l 1
 319 236 l 2xec
 319 273 323 305 332 332 c 0
 341 359 351 381 365 396 c 0
 379 411 394 424 410 435 c 0
 426 446 443 455 459 462 c 0
 475 469 491 476 504 484 c 0
 517 492 528 502 536 514 c 0
 544 526 549 541 549 559 c 0
 549 596 534 629 503 656 c 0
 472 683 421 697 349 697 c 0
 276 697 224 684 194 657 c 0
 164 630 149 598 149 559 c 0
 149 539 152 521 157 505 c 0
 162 489 168 476 174 467 c 0
 180 458 188 450 196 443 c 0
 204 436 210 431 213 429 c 0
 216 427 220 426 223 425 c 2
 251 415 l 1
EndSplineSet
EndChar

StartChar: exclam
Encoding: 166 33 153
Width: 350
VWidth: 230
Flags: W
HStem: 91 82<129.376 186.624> 255 21G<127 187>
VStem: 117 82<103.376 160.624> 127 60<255 700>
LayerCount: 2
Fore
SplineSet
117 132 m 0xe0
 117 143 121 153 129 161 c 0
 137 169 147 173 158 173 c 0
 169 173 179 169 187 161 c 0xd0
 195 153 199 143 199 132 c 0xe0
 199 121 195 111 187 103 c 0xd0
 179 95 169 91 158 91 c 0
 147 91 137 95 129 103 c 0
 121 111 117 121 117 132 c 0xe0
127 700 m 1
 187 700 l 1
 187 255 l 1
 127 255 l 1
 127 700 l 1
EndSplineSet
EndChar

StartChar: less
Encoding: 167 60 154
Width: 807
VWidth: 230
Flags: W
DStem2: 193 360 108 340 0.860162 -0.510022<0 562.551> 119 386 193 360 0.860504 0.509444<50.4317 611.756>
LayerCount: 2
Fore
SplineSet
646 698 m 1
 676 646 l 1
 193 360 l 1
 677 72 l 1
 646 21 l 1
 108 340 l 1
 103 347 102 356 104 365 c 0
 106 374 112 382 119 386 c 2
 646 698 l 1
EndSplineSet
EndChar

StartChar: braceleft
Encoding: 169 123 156
Width: 535
VWidth: 230
Flags: W
HStem: -143 60<318.917 435> 329 60<79.238 139.268> 802 60<323.403 435>
VStem: 194 60<-20.7668 246.375 472.309 737.282>
LayerCount: 2
Fore
SplineSet
105 329 m 0
 94 330 84 335 79 344 c 0
 74 353 73 363 78 373 c 0
 83 383 92 388 105 389 c 0
 107 389 111 390 115 391 c 0
 119 392 126 397 136 407 c 0
 146 417 155 430 163 447 c 0
 171 464 178 490 184 527 c 0
 190 564 194 606 194 656 c 0
 194 684 198 709 206 732 c 0
 214 755 224 772 236 786 c 0
 248 800 262 813 277 823 c 0
 292 833 307 840 322 845 c 0
 337 850 351 854 363 857 c 0
 375 860 385 861 393 861 c 2
 405 862 l 1
 435 862 l 1
 435 832 l 1
 435 802 l 1
 405 802 l 2
 399 802 394 802 386 801 c 0
 378 800 366 797 349 791 c 0
 332 785 317 778 304 769 c 0
 291 760 279 745 269 725 c 0
 259 705 254 683 254 656 c 0
 254 509 227 410 171 359 c 1
 227 308 254 209 254 61 c 0
 254 -11 288 -57 356 -76 c 0
 373 -81 390 -83 405 -83 c 2
 435 -83 l 1
 435 -143 l 1
 406 -143 l 2
 403 -143 399 -143 394 -143 c 0
 389 -143 379 -141 364 -138 c 0
 349 -135 335 -132 322 -127 c 0
 309 -122 294 -115 278 -105 c 0
 262 -95 248 -83 236 -69 c 0
 224 -55 214 -38 206 -15 c 0
 198 8 194 33 194 61 c 0
 194 202 171 288 125 320 c 0
 117 325 111 329 105 329 c 0
EndSplineSet
EndChar

StartChar: semicolon
Encoding: 171 59 158
Width: 378
VWidth: 230
Flags: W
HStem: 552 82<166.376 223.624>
VStem: 154 82<564.376 621.624>
DStem2: 133 64 173 20 0.73994 0.672673<1.77636e-15 107.242> 211 279 165 241 0.636881 -0.770962<0 81.5292>
LayerCount: 2
Fore
SplineSet
207 237 m 24
 209 235 211 232 214 228 c 0
 217 224 220 215 224 202 c 0
 228 189 230 177 230 164 c 0
 230 151 225 135 216 116 c 0
 207 97 194 79 175 62 c 1024
165 241 m 1
 211 279 l 1
 230 256 l 2
 247 236 257 210 259 178 c 0
 263 128 241 82 195 40 c 2
 173 20 l 1
 133 64 l 1
 155 84 l 2
 170 98 181 112 188 126 c 0
 195 140 199 152 200 162 c 0
 201 172 200 181 197 191 c 0
 194 201 192 207 190 210 c 0
 188 213 186 215 184 218 c 2
 165 241 l 1
154 593 m 0
 154 604 158 614 166 622 c 0
 174 630 184 634 195 634 c 0
 206 634 216 630 224 622 c 0
 232 614 236 604 236 593 c 0
 236 582 232 572 224 564 c 0
 216 556 206 552 195 552 c 0
 184 552 174 556 166 564 c 0
 158 572 154 582 154 593 c 0
EndSplineSet
EndChar

StartChar: quotedbl
Encoding: 172 34 159
Width: 407
VWidth: 230
Flags: W
HStem: 627 235<102 162 256 316>
VStem: 102 60<627 862> 256 60<627 862>
LayerCount: 2
Fore
SplineSet
102 862 m 1
 162 862 l 1
 162 627 l 1
 102 627 l 1
 102 862 l 1
256 862 m 1
 316 862 l 1
 316 627 l 1
 256 627 l 1
 256 862 l 1
EndSplineSet
EndChar

